<svg width="158" height="32" viewBox="0 0 158 32" fill="none" xmlns="http://www.w3.org/2000/svg">
<g clip-path="url(#clip0_94_254)">
<rect width="158" height="32" rx="6" fill="#0078D4"/>
<mask id="path-3-inside-1_94_254" fill="white">
<path d="M0 0H32V32H0V0Z"/>
</mask>
<path d="M32 0H31V32H32H33V0H32Z" fill="#70AEDD" mask="url(#path-3-inside-1_94_254)"/>
<path fill-rule="evenodd" clip-rule="evenodd" d="M13.4707 8.46347H18.5293C18.9629 8.46347 19.3965 8.75058 19.5411 9.18124L23.9494 22.101C24.1662 22.8188 23.6603 23.5365 22.9376 23.5365H17.9512H17.8789C17.6621 23.5365 17.4453 23.4648 17.2285 23.3212L13.9043 20.8808L13.2539 22.8188C13.1093 23.2494 12.6757 23.5365 12.2421 23.5365H9.06237C8.33971 23.5365 7.83384 22.8188 8.05064 22.101L12.3867 9.18124C12.6035 8.75058 12.9648 8.46347 13.4707 8.46347ZM11.5917 18.2968L17.6621 22.747C17.7344 22.8188 17.8067 22.8188 17.8789 22.8188C18.0957 22.8188 18.3125 22.6034 18.2403 22.3163L15.7832 15.1387L14.8437 17.5073L14.7715 17.7944H14.5547H10.9413L11.5917 18.2968ZM22.9376 22.8188H18.8907C18.9629 22.6034 18.9629 22.3881 18.8907 22.101L14.5547 9.18124H18.6016C18.7461 9.18124 18.8907 9.25301 18.9629 9.39656L23.3712 22.3163C23.3712 22.6034 23.1544 22.8188 22.9376 22.8188Z" fill="white"/>
<path d="M44.6574 21V10.794H48.7594C51.6574 10.794 53.3514 12.796 53.3514 15.904C53.3514 19.012 51.6574 21 48.7594 21H44.6574ZM48.5214 19.586C50.4954 19.586 51.6854 18.312 51.6854 15.876C51.6854 13.426 50.4674 12.194 48.5214 12.194H46.2674V19.586H48.5214ZM58.1381 21.126C55.8981 21.126 54.5821 19.628 54.5821 17.332C54.5821 14.966 55.9401 13.454 58.0821 13.454C60.4761 13.454 61.6801 15.148 61.5121 17.598H56.1501C56.1361 19.11 56.9061 19.936 58.1381 19.936C59.0901 19.936 59.7061 19.488 59.9301 18.76H61.4421C61.1761 20.23 59.8881 21.126 58.1381 21.126ZM56.1221 16.59H59.9721C59.9161 15.302 59.1741 14.644 58.0681 14.644C56.9761 14.644 56.2201 15.372 56.1221 16.59ZM62.8488 23.394V13.58H64.3048L64.3608 15.036H64.4448C64.7808 14.098 65.6628 13.454 66.8108 13.454C68.6028 13.454 69.7648 14.882 69.7648 17.29C69.7648 19.712 68.6028 21.126 66.8108 21.126C65.6628 21.126 64.7808 20.51 64.4448 19.586H64.3888V23.394H62.8488ZM66.2508 19.852C67.4688 19.852 68.1828 18.9 68.1828 17.29C68.1828 15.694 67.4828 14.742 66.2928 14.742C65.0888 14.742 64.3888 15.722 64.3888 16.94V17.654C64.3888 18.872 65.0748 19.852 66.2508 19.852ZM71.269 21V10.556H72.809V21H71.269ZM77.8643 21.126C75.7223 21.126 74.2803 19.656 74.2803 17.304C74.2803 15.008 75.6383 13.454 77.8643 13.454C79.9923 13.454 81.4203 14.924 81.4203 17.29C81.4203 19.572 80.0763 21.126 77.8643 21.126ZM77.8503 19.838C79.0683 19.838 79.8523 18.942 79.8523 17.29C79.8523 15.638 79.0823 14.728 77.8643 14.728C76.6323 14.728 75.8483 15.638 75.8483 17.304C75.8483 18.942 76.6323 19.838 77.8503 19.838ZM82.4854 23.45V22.176H83.2974C83.9414 22.176 84.2774 21.938 84.5014 21.336L84.8234 20.468L81.9674 13.58H83.6614L85.5514 18.816H85.6214L86.1254 17.262L87.3854 13.58H89.0234L85.9854 21.714C85.5234 22.988 84.7954 23.45 83.5634 23.45H82.4854ZM95.6675 21C94.5335 21 93.9875 20.482 93.9875 19.278V14.84H92.6155V13.58H93.9875V11.48L95.5135 11.284V13.58H97.0955V14.84H95.5135V18.998C95.5135 19.516 95.7515 19.712 96.2135 19.712H97.1095V21H95.6675ZM101.51 21.126C99.3681 21.126 97.9261 19.656 97.9261 17.304C97.9261 15.008 99.2841 13.454 101.51 13.454C103.638 13.454 105.066 14.924 105.066 17.29C105.066 19.572 103.722 21.126 101.51 21.126ZM101.496 19.838C102.714 19.838 103.498 18.942 103.498 17.29C103.498 15.638 102.728 14.728 101.51 14.728C100.278 14.728 99.4941 15.638 99.4941 17.304C99.4941 18.942 100.278 19.838 101.496 19.838ZM109.087 21L112.671 10.794H114.967L118.551 21H116.787L115.891 18.354H111.705L110.809 21H109.087ZM112.139 17.038H115.457L114.267 13.524L113.833 12.166H113.763L113.329 13.524L112.139 17.038ZM119.258 21V19.88L123.262 14.84H119.426V13.58H125.222V14.7L121.218 19.74H125.376V21H119.258ZM129.035 21.126C127.411 21.126 126.487 20.118 126.487 18.186V13.58H128.027V17.794C128.027 19.11 128.489 19.852 129.609 19.852C130.715 19.852 131.471 18.942 131.471 17.612V13.58H132.997V21H131.541L131.471 19.488H131.401C131.037 20.51 130.155 21.126 129.035 21.126ZM134.799 21V13.58H136.185L136.255 14.91H136.311C136.633 13.986 137.431 13.496 138.397 13.496H138.719V14.98C138.621 14.966 138.509 14.966 138.383 14.966C137.081 14.966 136.409 15.638 136.339 16.842V21H134.799ZM142.677 21.126C140.437 21.126 139.121 19.628 139.121 17.332C139.121 14.966 140.479 13.454 142.621 13.454C145.015 13.454 146.219 15.148 146.051 17.598H140.689C140.675 19.11 141.445 19.936 142.677 19.936C143.629 19.936 144.245 19.488 144.469 18.76H145.981C145.715 20.23 144.427 21.126 142.677 21.126ZM140.661 16.59H144.511C144.455 15.302 143.713 14.644 142.607 14.644C141.515 14.644 140.759 15.372 140.661 16.59Z" fill="white"/>
</g>
<rect x="0.5" y="0.5" width="157" height="31" rx="5.5" stroke="#70AEDD"/>
<defs>
<clipPath id="clip0_94_254">
<rect width="158" height="32" rx="6" fill="white"/>
</clipPath>
</defs>
</svg>
