<svg width="161" height="32" viewBox="0 0 161 32" fill="none" xmlns="http://www.w3.org/2000/svg">
<g clip-path="url(#clip0_94_352)">
<rect width="161" height="32" rx="6" fill="#2C2925"/>
<mask id="path-3-inside-1_94_352" fill="white">
<path d="M0 0H32V32H0V0Z"/>
</mask>
<path d="M32 0H31V32H32H33V0H32Z" fill="#3A3A3A" mask="url(#path-3-inside-1_94_352)"/>
<path d="M15.9952 12.1852L23.5 16.5036V12.9L15.9905 8.57677L8.5 12.9047V16.5132L15.9952 12.1852Z" fill="#87FCC4"/>
<path d="M22.2996 20.8464L23.5 20.141V17.9288L15.9905 13.6007L8.5 17.9288V20.1505L9.70041 20.8464L15.9905 17.2093L22.2996 20.8464Z" fill="#87FCC4"/>
<path d="M15.9952 22.3243L17.9012 23.4232L21.0321 21.6236L15.9904 18.7159L10.968 21.6236L14.0984 23.4232L15.9952 22.3243Z" fill="#87FCC4"/>
<path d="M44.6574 21V10.794H48.7594C51.6574 10.794 53.3514 12.796 53.3514 15.904C53.3514 19.012 51.6574 21 48.7594 21H44.6574ZM48.5214 19.586C50.4954 19.586 51.6854 18.312 51.6854 15.876C51.6854 13.426 50.4674 12.194 48.5214 12.194H46.2674V19.586H48.5214ZM58.1381 21.126C55.8981 21.126 54.5821 19.628 54.5821 17.332C54.5821 14.966 55.9401 13.454 58.0821 13.454C60.4761 13.454 61.6801 15.148 61.5121 17.598H56.1501C56.1361 19.11 56.9061 19.936 58.1381 19.936C59.0901 19.936 59.7061 19.488 59.9301 18.76H61.4421C61.1761 20.23 59.8881 21.126 58.1381 21.126ZM56.1221 16.59H59.9721C59.9161 15.302 59.1741 14.644 58.0681 14.644C56.9761 14.644 56.2201 15.372 56.1221 16.59ZM62.8488 23.394V13.58H64.3048L64.3608 15.036H64.4448C64.7808 14.098 65.6628 13.454 66.8108 13.454C68.6028 13.454 69.7648 14.882 69.7648 17.29C69.7648 19.712 68.6028 21.126 66.8108 21.126C65.6628 21.126 64.7808 20.51 64.4448 19.586H64.3888V23.394H62.8488ZM66.2508 19.852C67.4688 19.852 68.1828 18.9 68.1828 17.29C68.1828 15.694 67.4828 14.742 66.2928 14.742C65.0888 14.742 64.3888 15.722 64.3888 16.94V17.654C64.3888 18.872 65.0748 19.852 66.2508 19.852ZM71.269 21V10.556H72.809V21H71.269ZM77.8643 21.126C75.7223 21.126 74.2803 19.656 74.2803 17.304C74.2803 15.008 75.6383 13.454 77.8643 13.454C79.9923 13.454 81.4203 14.924 81.4203 17.29C81.4203 19.572 80.0763 21.126 77.8643 21.126ZM77.8503 19.838C79.0683 19.838 79.8523 18.942 79.8523 17.29C79.8523 15.638 79.0823 14.728 77.8643 14.728C76.6323 14.728 75.8483 15.638 75.8483 17.304C75.8483 18.942 76.6323 19.838 77.8503 19.838ZM82.4854 23.45V22.176H83.2974C83.9414 22.176 84.2774 21.938 84.5014 21.336L84.8234 20.468L81.9674 13.58H83.6614L85.5514 18.816H85.6214L86.1254 17.262L87.3854 13.58H89.0234L85.9854 21.714C85.5234 22.988 84.7954 23.45 83.5634 23.45H82.4854ZM95.6675 21C94.5335 21 93.9875 20.482 93.9875 19.278V14.84H92.6155V13.58H93.9875V11.48L95.5135 11.284V13.58H97.0955V14.84H95.5135V18.998C95.5135 19.516 95.7515 19.712 96.2135 19.712H97.1095V21H95.6675ZM101.51 21.126C99.3681 21.126 97.9261 19.656 97.9261 17.304C97.9261 15.008 99.2841 13.454 101.51 13.454C103.638 13.454 105.066 14.924 105.066 17.29C105.066 19.572 103.722 21.126 101.51 21.126ZM101.496 19.838C102.714 19.838 103.498 18.942 103.498 17.29C103.498 15.638 102.728 14.728 101.51 14.728C100.278 14.728 99.4941 15.638 99.4941 17.304C99.4941 18.942 100.278 19.838 101.496 19.838ZM116.157 21L113.063 16.212L111.425 18.004V21H109.801V10.794H111.425V16.044L116.045 10.794H118.019L114.183 15.036L118.089 21H116.157ZM121.999 21.126C119.857 21.126 118.415 19.656 118.415 17.304C118.415 15.008 119.773 13.454 121.999 13.454C124.127 13.454 125.555 14.924 125.555 17.29C125.555 19.572 124.211 21.126 121.999 21.126ZM121.985 19.838C123.203 19.838 123.987 18.942 123.987 17.29C123.987 15.638 123.217 14.728 121.999 14.728C120.767 14.728 119.983 15.638 119.983 17.304C119.983 18.942 120.767 19.838 121.985 19.838ZM126.62 23.45V22.176H127.432C128.076 22.176 128.412 21.938 128.636 21.336L128.958 20.468L126.102 13.58H127.796L129.686 18.816H129.756L130.26 17.262L131.52 13.58H133.158L130.12 21.714C129.658 22.988 128.93 23.45 127.698 23.45H126.62ZM137.21 21.126C134.97 21.126 133.654 19.628 133.654 17.332C133.654 14.966 135.012 13.454 137.154 13.454C139.548 13.454 140.752 15.148 140.584 17.598H135.222C135.208 19.11 135.978 19.936 137.21 19.936C138.162 19.936 138.778 19.488 139.002 18.76H140.514C140.248 20.23 138.96 21.126 137.21 21.126ZM135.194 16.59H139.044C138.988 15.302 138.246 14.644 137.14 14.644C136.048 14.644 135.292 15.372 135.194 16.59ZM145.869 21.126C144.721 21.126 143.839 20.524 143.489 19.558H143.419L143.363 21H141.907V10.556H143.447V15.05H143.503C143.825 14.112 144.721 13.454 145.869 13.454C147.661 13.454 148.823 14.896 148.823 17.29C148.823 19.684 147.661 21.126 145.869 21.126ZM145.309 19.852C146.541 19.852 147.241 18.886 147.241 17.29C147.241 15.708 146.569 14.742 145.351 14.742C144.147 14.742 143.447 15.722 143.447 16.94V17.668C143.447 18.872 144.133 19.852 145.309 19.852Z" fill="white"/>
</g>
<rect x="0.5" y="0.5" width="160" height="31" rx="5.5" stroke="#3A3A3A"/>
<defs>
<clipPath id="clip0_94_352">
<rect width="161" height="32" rx="6" fill="white"/>
</clipPath>
</defs>
</svg>
