<svg width="168" height="32" viewBox="0 0 168 32" fill="none" xmlns="http://www.w3.org/2000/svg">
<g clip-path="url(#clip0_94_236)">
<rect width="168" height="32" rx="6" fill="#7056BF"/>
<mask id="path-3-inside-1_94_236" fill="white">
<path d="M0 0H32V32H0V0Z"/>
</mask>
<path d="M32 0H31V32H32H33V0H32Z" fill="#A48FE2" mask="url(#path-3-inside-1_94_236)"/>
<g clip-path="url(#clip1_94_236)">
<path d="M22.4575 7H9.54249C8.64174 7 7.92249 7.72 7.92249 8.62V23.3807C7.92249 24.2792 8.64174 25 9.54249 25H22.4575C23.3575 25 24.0767 24.2792 24.0767 23.3807V8.62C24.0775 7.72 23.3582 7 22.4575 7ZM23.1775 23.3807C23.1775 23.785 22.8617 24.1007 22.4575 24.1007H9.54249C9.13749 24.1007 8.82249 23.785 8.82249 23.3807V8.62C8.82249 8.215 9.13749 7.89925 9.54249 7.89925H22.4575C22.8617 7.89925 23.1775 8.215 23.1775 8.62V23.3807ZM11.9725 22.2992L13.9975 20.5L11.9725 18.7V22.2992ZM19.2625 15.01C18.9032 14.65 18.2282 14.2 17.1032 14.2C15.8875 14.2 14.6275 14.5157 13.7282 14.83V9.7H11.9282V17.485L13.1882 16.9C13.1882 16.9 15.2582 15.955 17.0582 15.955C17.9582 15.955 18.1832 16.45 18.1832 16.9V22.3H19.9832V16.9C20.0275 16.7657 20.0275 15.7743 19.2625 15.01ZM16.8775 12.625H18.6775C19.4875 11.68 19.8925 10.7342 20.0275 9.7H18.2282C18.0475 10.7342 17.5975 11.68 16.8775 12.625Z" fill="white"/>
</g>
<path d="M44.6574 21V10.794H48.7594C51.6574 10.794 53.3514 12.796 53.3514 15.904C53.3514 19.012 51.6574 21 48.7594 21H44.6574ZM48.5214 19.586C50.4954 19.586 51.6854 18.312 51.6854 15.876C51.6854 13.426 50.4674 12.194 48.5214 12.194H46.2674V19.586H48.5214ZM58.1381 21.126C55.8981 21.126 54.5821 19.628 54.5821 17.332C54.5821 14.966 55.9401 13.454 58.0821 13.454C60.4761 13.454 61.6801 15.148 61.5121 17.598H56.1501C56.1361 19.11 56.9061 19.936 58.1381 19.936C59.0901 19.936 59.7061 19.488 59.9301 18.76H61.4421C61.1761 20.23 59.8881 21.126 58.1381 21.126ZM56.1221 16.59H59.9721C59.9161 15.302 59.1741 14.644 58.0681 14.644C56.9761 14.644 56.2201 15.372 56.1221 16.59ZM62.8488 23.394V13.58H64.3048L64.3608 15.036H64.4448C64.7808 14.098 65.6628 13.454 66.8108 13.454C68.6028 13.454 69.7648 14.882 69.7648 17.29C69.7648 19.712 68.6028 21.126 66.8108 21.126C65.6628 21.126 64.7808 20.51 64.4448 19.586H64.3888V23.394H62.8488ZM66.2508 19.852C67.4688 19.852 68.1828 18.9 68.1828 17.29C68.1828 15.694 67.4828 14.742 66.2928 14.742C65.0888 14.742 64.3888 15.722 64.3888 16.94V17.654C64.3888 18.872 65.0748 19.852 66.2508 19.852ZM71.269 21V10.556H72.809V21H71.269ZM77.8643 21.126C75.7223 21.126 74.2803 19.656 74.2803 17.304C74.2803 15.008 75.6383 13.454 77.8643 13.454C79.9923 13.454 81.4203 14.924 81.4203 17.29C81.4203 19.572 80.0763 21.126 77.8643 21.126ZM77.8503 19.838C79.0683 19.838 79.8523 18.942 79.8523 17.29C79.8523 15.638 79.0823 14.728 77.8643 14.728C76.6323 14.728 75.8483 15.638 75.8483 17.304C75.8483 18.942 76.6323 19.838 77.8503 19.838ZM82.4854 23.45V22.176H83.2974C83.9414 22.176 84.2774 21.938 84.5014 21.336L84.8234 20.468L81.9674 13.58H83.6614L85.5514 18.816H85.6214L86.1254 17.262L87.3854 13.58H89.0234L85.9854 21.714C85.5234 22.988 84.7954 23.45 83.5634 23.45H82.4854ZM95.6675 21C94.5335 21 93.9875 20.482 93.9875 19.278V14.84H92.6155V13.58H93.9875V11.48L95.5135 11.284V13.58H97.0955V14.84H95.5135V18.998C95.5135 19.516 95.7515 19.712 96.2135 19.712H97.1095V21H95.6675ZM101.51 21.126C99.3681 21.126 97.9261 19.656 97.9261 17.304C97.9261 15.008 99.2841 13.454 101.51 13.454C103.638 13.454 105.066 14.924 105.066 17.29C105.066 19.572 103.722 21.126 101.51 21.126ZM101.496 19.838C102.714 19.838 103.498 18.942 103.498 17.29C103.498 15.638 102.728 14.728 101.51 14.728C100.278 14.728 99.4941 15.638 99.4941 17.304C99.4941 18.942 100.278 19.838 101.496 19.838ZM109.843 21V10.794H111.467V15.05H116.801V10.794H118.411V21H116.801V16.464H111.467V21H109.843ZM123.473 21.126C121.233 21.126 119.917 19.628 119.917 17.332C119.917 14.966 121.275 13.454 123.417 13.454C125.811 13.454 127.015 15.148 126.847 17.598H121.485C121.471 19.11 122.241 19.936 123.473 19.936C124.425 19.936 125.041 19.488 125.265 18.76H126.777C126.511 20.23 125.223 21.126 123.473 21.126ZM121.457 16.59H125.307C125.251 15.302 124.509 14.644 123.403 14.644C122.311 14.644 121.555 15.372 121.457 16.59ZM128.156 21V13.58H129.542L129.612 14.91H129.668C129.99 13.986 130.788 13.496 131.754 13.496H132.076V14.98C131.978 14.966 131.866 14.966 131.74 14.966C130.438 14.966 129.766 15.638 129.696 16.842V21H128.156ZM136.146 21.126C134.004 21.126 132.562 19.656 132.562 17.304C132.562 15.008 133.92 13.454 136.146 13.454C138.274 13.454 139.702 14.924 139.702 17.29C139.702 19.572 138.358 21.126 136.146 21.126ZM136.132 19.838C137.35 19.838 138.134 18.942 138.134 17.29C138.134 15.638 137.364 14.728 136.146 14.728C134.914 14.728 134.13 15.638 134.13 17.304C134.13 18.942 134.914 19.838 136.132 19.838ZM146.181 21L144.389 18.242L143.941 17.528L142.737 18.732V21H141.183V10.556H142.737V16.968L143.367 16.282L145.929 13.58H147.777L145.033 16.464L147.973 21H146.181ZM151.452 21.126C149.828 21.126 148.904 20.118 148.904 18.186V13.58H150.444V17.794C150.444 19.11 150.906 19.852 152.026 19.852C153.132 19.852 153.888 18.942 153.888 17.612V13.58H155.414V21H153.958L153.888 19.488H153.818C153.454 20.51 152.572 21.126 151.452 21.126Z" fill="white"/>
</g>
<rect x="0.5" y="0.5" width="167" height="31" rx="5.5" stroke="#A48FE2"/>
<defs>
<clipPath id="clip0_94_236">
<rect width="168" height="32" rx="6" fill="white"/>
</clipPath>
<clipPath id="clip1_94_236">
<rect width="18" height="18" fill="white" transform="translate(7 7)"/>
</clipPath>
</defs>
</svg>
