<svg width="206" height="32" viewBox="0 0 206 32" fill="none" xmlns="http://www.w3.org/2000/svg">
<g clip-path="url(#clip0_94_343)">
<rect width="206" height="32" rx="6" fill="#2C2925"/>
<mask id="path-3-inside-1_94_343" fill="white">
<path d="M0 0H32V32H0V0Z"/>
</mask>
<path d="M32 0H31V32H32H33V0H32Z" fill="#3A3A3A" mask="url(#path-3-inside-1_94_343)"/>
<path fill-rule="evenodd" clip-rule="evenodd" d="M12.6044 21.8803C9.37391 21.8803 6.755 19.2513 6.755 16.0014C6.755 12.7517 9.37391 10.1169 12.6044 10.1169H19.4042C22.6376 10.1169 25.245 12.7517 25.245 16.0014C25.245 19.2513 22.6376 21.8832 19.4042 21.8832L12.6044 21.8803ZM19.2491 19.81C21.3455 19.81 23.0382 18.1035 23.0382 16.0014C23.0382 13.8965 21.3455 12.1958 19.2491 12.1958H12.7551C10.6647 12.1958 8.97046 13.8965 8.97046 16.0014C8.97046 18.1035 10.6647 19.81 12.7551 19.81H19.2491Z" fill="#C74634"/>
<path d="M44.6574 21V10.794H48.7594C51.6574 10.794 53.3514 12.796 53.3514 15.904C53.3514 19.012 51.6574 21 48.7594 21H44.6574ZM48.5214 19.586C50.4954 19.586 51.6854 18.312 51.6854 15.876C51.6854 13.426 50.4674 12.194 48.5214 12.194H46.2674V19.586H48.5214ZM58.1381 21.126C55.8981 21.126 54.5821 19.628 54.5821 17.332C54.5821 14.966 55.9401 13.454 58.0821 13.454C60.4761 13.454 61.6801 15.148 61.5121 17.598H56.1501C56.1361 19.11 56.9061 19.936 58.1381 19.936C59.0901 19.936 59.7061 19.488 59.9301 18.76H61.4421C61.1761 20.23 59.8881 21.126 58.1381 21.126ZM56.1221 16.59H59.9721C59.9161 15.302 59.1741 14.644 58.0681 14.644C56.9761 14.644 56.2201 15.372 56.1221 16.59ZM62.8488 23.394V13.58H64.3048L64.3608 15.036H64.4448C64.7808 14.098 65.6628 13.454 66.8108 13.454C68.6028 13.454 69.7648 14.882 69.7648 17.29C69.7648 19.712 68.6028 21.126 66.8108 21.126C65.6628 21.126 64.7808 20.51 64.4448 19.586H64.3888V23.394H62.8488ZM66.2508 19.852C67.4688 19.852 68.1828 18.9 68.1828 17.29C68.1828 15.694 67.4828 14.742 66.2928 14.742C65.0888 14.742 64.3888 15.722 64.3888 16.94V17.654C64.3888 18.872 65.0748 19.852 66.2508 19.852ZM71.269 21V10.556H72.809V21H71.269ZM77.8643 21.126C75.7223 21.126 74.2803 19.656 74.2803 17.304C74.2803 15.008 75.6383 13.454 77.8643 13.454C79.9923 13.454 81.4203 14.924 81.4203 17.29C81.4203 19.572 80.0763 21.126 77.8643 21.126ZM77.8503 19.838C79.0683 19.838 79.8523 18.942 79.8523 17.29C79.8523 15.638 79.0823 14.728 77.8643 14.728C76.6323 14.728 75.8483 15.638 75.8483 17.304C75.8483 18.942 76.6323 19.838 77.8503 19.838ZM82.4854 23.45V22.176H83.2974C83.9414 22.176 84.2774 21.938 84.5014 21.336L84.8234 20.468L81.9674 13.58H83.6614L85.5514 18.816H85.6214L86.1254 17.262L87.3854 13.58H89.0234L85.9854 21.714C85.5234 22.988 84.7954 23.45 83.5634 23.45H82.4854ZM95.6675 21C94.5335 21 93.9875 20.482 93.9875 19.278V14.84H92.6155V13.58H93.9875V11.48L95.5135 11.284V13.58H97.0955V14.84H95.5135V18.998C95.5135 19.516 95.7515 19.712 96.2135 19.712H97.1095V21H95.6675ZM101.51 21.126C99.3681 21.126 97.9261 19.656 97.9261 17.304C97.9261 15.008 99.2841 13.454 101.51 13.454C103.638 13.454 105.066 14.924 105.066 17.29C105.066 19.572 103.722 21.126 101.51 21.126ZM101.496 19.838C102.714 19.838 103.498 18.942 103.498 17.29C103.498 15.638 102.728 14.728 101.51 14.728C100.278 14.728 99.4941 15.638 99.4941 17.304C99.4941 18.942 100.278 19.838 101.496 19.838ZM114.337 21.126C111.397 21.126 109.521 19.124 109.521 15.904C109.521 12.656 111.397 10.682 114.337 10.682C117.305 10.682 119.181 12.67 119.181 15.904C119.181 19.138 117.277 21.126 114.337 21.126ZM114.337 19.698C116.311 19.698 117.501 18.27 117.501 15.904C117.501 13.51 116.311 12.096 114.337 12.096C112.377 12.096 111.201 13.51 111.201 15.904C111.201 18.27 112.391 19.698 114.337 19.698ZM120.802 21V13.58H122.188L122.258 14.91H122.314C122.636 13.986 123.434 13.496 124.4 13.496H124.722V14.98C124.624 14.966 124.512 14.966 124.386 14.966C123.084 14.966 122.412 15.638 122.342 16.842V21H120.802ZM128.246 21.126C126.454 21.126 125.292 19.684 125.292 17.29C125.292 14.882 126.454 13.454 128.246 13.454C129.408 13.454 130.29 14.056 130.64 15.036H130.696L130.752 13.58H132.208V21H130.752L130.696 19.53H130.64C130.29 20.51 129.394 21.126 128.246 21.126ZM128.764 19.838C129.954 19.838 130.668 18.816 130.668 17.612V16.982C130.668 15.764 129.968 14.728 128.792 14.728C127.574 14.728 126.874 15.666 126.874 17.29C126.874 18.9 127.574 19.838 128.764 19.838ZM137.212 21.126C135.056 21.126 133.656 19.6 133.656 17.29C133.656 14.994 135.07 13.454 137.268 13.454C139.088 13.454 140.362 14.49 140.558 16.128H139.004C138.794 15.218 138.122 14.742 137.226 14.742C135.924 14.742 135.224 15.764 135.224 17.304C135.224 18.942 136.008 19.838 137.212 19.838C138.206 19.838 138.864 19.278 139.032 18.382H140.586C140.376 20.076 139.074 21.126 137.212 21.126ZM141.907 21V10.556H143.447V21H141.907ZM148.391 21.126C146.151 21.126 144.835 19.628 144.835 17.332C144.835 14.966 146.193 13.454 148.335 13.454C150.729 13.454 151.933 15.148 151.765 17.598H146.403C146.389 19.11 147.159 19.936 148.391 19.936C149.343 19.936 149.959 19.488 150.183 18.76H151.695C151.429 20.23 150.141 21.126 148.391 21.126ZM146.375 16.59H150.225C150.169 15.302 149.427 14.644 148.321 14.644C147.229 14.644 146.473 15.372 146.375 16.59ZM160.933 21.126C158.021 21.126 156.103 19.152 156.103 15.904C156.103 12.642 158.021 10.682 160.933 10.682C163.397 10.682 165.105 12.026 165.441 14.21H163.761C163.481 12.922 162.431 12.082 160.933 12.082C159.001 12.082 157.783 13.468 157.783 15.904C157.783 18.34 159.001 19.712 160.933 19.712C162.403 19.712 163.509 18.886 163.761 17.57H165.441C165.133 19.768 163.397 21.126 160.933 21.126ZM166.92 21V10.556H168.46V21H166.92ZM173.515 21.126C171.373 21.126 169.931 19.656 169.931 17.304C169.931 15.008 171.289 13.454 173.515 13.454C175.643 13.454 177.071 14.924 177.071 17.29C177.071 19.572 175.727 21.126 173.515 21.126ZM173.501 19.838C174.719 19.838 175.503 18.942 175.503 17.29C175.503 15.638 174.733 14.728 173.515 14.728C172.283 14.728 171.499 15.638 171.499 17.304C171.499 18.942 172.283 19.838 173.501 19.838ZM181.043 21.126C179.419 21.126 178.495 20.118 178.495 18.186V13.58H180.035V17.794C180.035 19.11 180.497 19.852 181.617 19.852C182.723 19.852 183.479 18.942 183.479 17.612V13.58H185.005V21H183.549L183.479 19.488H183.409C183.045 20.51 182.163 21.126 181.043 21.126ZM189.453 21.126C187.689 21.126 186.499 19.684 186.499 17.29C186.499 14.882 187.689 13.454 189.453 13.454C190.615 13.454 191.497 14.084 191.819 15.022H191.889L191.875 10.556H193.415V21H191.959L191.903 19.558H191.833C191.497 20.496 190.615 21.126 189.453 21.126ZM189.971 19.838C191.189 19.838 191.875 18.844 191.875 17.626V16.968C191.875 15.736 191.189 14.728 190.013 14.728C188.781 14.728 188.081 15.694 188.081 17.29C188.081 18.872 188.753 19.838 189.971 19.838Z" fill="white"/>
</g>
<rect x="0.5" y="0.5" width="205" height="31" rx="5.5" stroke="#3A3A3A"/>
<defs>
<clipPath id="clip0_94_343">
<rect width="206" height="32" rx="6" fill="white"/>
</clipPath>
</defs>
</svg>
