<svg width="194" height="32" viewBox="0 0 194 32" fill="none" xmlns="http://www.w3.org/2000/svg">
<g clip-path="url(#clip0_94_317)">
<rect width="194" height="32" rx="6" fill="#4387F6"/>
<mask id="path-3-inside-1_94_317" fill="white">
<path d="M0 0H32V32H0V0Z"/>
</mask>
<path d="M32 0H31V32H32H33V0H32Z" fill="#89B6FF" mask="url(#path-3-inside-1_94_317)"/>
<path d="M8.5 8.62942L10.8344 10.1976L12.6643 16.0805L10.867 21.7866L8.5 23.3707L10.7866 16.014L8.5 8.62942ZM14.479 11.2448L15.6119 14.9091H19.9615L14.479 11.2448ZM23.5 16.014L12.507 23.3706L14.7936 16.014L12.507 8.62938L23.5 16.014Z" fill="white"/>
<path d="M44.6714 21V10.794H49.5014C51.5174 10.794 52.7354 11.746 52.7354 13.552C52.7354 14.826 52.0774 15.694 50.8594 16.03V16.114C52.0074 16.324 52.5114 16.968 52.5114 18.144V19.838C52.5114 20.258 52.5254 20.65 52.6794 21H51.0414C50.9294 20.762 50.8734 20.342 50.8734 19.824V18.438C50.8734 17.444 50.4814 16.912 49.1374 16.912H46.2954V21H44.6714ZM46.2954 15.582H49.1514C50.4954 15.582 51.0694 14.882 51.0694 13.832C51.0694 12.642 50.2994 12.166 49.1514 12.166H46.2954V15.582ZM56.8792 21.126C55.2552 21.126 54.3312 20.118 54.3312 18.186V13.58H55.8712V17.794C55.8712 19.11 56.3332 19.852 57.4532 19.852C58.5592 19.852 59.3152 18.942 59.3152 17.612V13.58H60.8412V21H59.3852L59.3152 19.488H59.2452C58.8812 20.51 57.9992 21.126 56.8792 21.126ZM62.657 21V13.58H64.127L64.183 15.078H64.253C64.673 14.014 65.597 13.454 66.647 13.454C68.131 13.454 69.167 14.364 69.167 16.562V21H67.641V16.898C67.641 15.428 67.137 14.742 66.073 14.742C64.953 14.742 64.197 15.652 64.197 16.926V21H62.657ZM77.3174 21.126C75.1754 21.126 73.7334 19.656 73.7334 17.304C73.7334 15.008 75.0914 13.454 77.3174 13.454C79.4454 13.454 80.8734 14.924 80.8734 17.29C80.8734 19.572 79.5294 21.126 77.3174 21.126ZM77.3034 19.838C78.5214 19.838 79.3054 18.942 79.3054 17.29C79.3054 15.638 78.5354 14.728 77.3174 14.728C76.0854 14.728 75.3014 15.638 75.3014 17.304C75.3014 18.942 76.0854 19.838 77.3034 19.838ZM82.3396 21V13.58H83.8096L83.8656 15.078H83.9356C84.3556 14.014 85.2796 13.454 86.3296 13.454C87.8136 13.454 88.8496 14.364 88.8496 16.562V21H87.3236V16.898C87.3236 15.428 86.8196 14.742 85.7556 14.742C84.6356 14.742 83.8796 15.652 83.8796 16.926V21H82.3396ZM98.4 21.126C95.432 21.126 93.584 19.04 93.584 15.904C93.584 12.698 95.516 10.682 98.456 10.682C100.878 10.682 102.558 11.984 102.88 13.986H101.2C100.934 12.81 99.87 12.096 98.456 12.096C96.482 12.096 95.236 13.496 95.236 15.89C95.236 18.298 96.468 19.74 98.442 19.74C100.192 19.74 101.312 18.76 101.452 16.954H98.498V15.708H103.118V16.436C103.118 19.334 101.242 21.126 98.4 21.126ZM107.922 21.126C105.78 21.126 104.338 19.656 104.338 17.304C104.338 15.008 105.696 13.454 107.922 13.454C110.05 13.454 111.478 14.924 111.478 17.29C111.478 19.572 110.134 21.126 107.922 21.126ZM107.908 19.838C109.126 19.838 109.91 18.942 109.91 17.29C109.91 15.638 109.14 14.728 107.922 14.728C106.69 14.728 105.906 15.638 105.906 17.304C105.906 18.942 106.69 19.838 107.908 19.838ZM116.315 21.126C114.173 21.126 112.731 19.656 112.731 17.304C112.731 15.008 114.089 13.454 116.315 13.454C118.443 13.454 119.871 14.924 119.871 17.29C119.871 19.572 118.527 21.126 116.315 21.126ZM116.301 19.838C117.519 19.838 118.303 18.942 118.303 17.29C118.303 15.638 117.533 14.728 116.315 14.728C115.083 14.728 114.299 15.638 114.299 17.304C114.299 18.942 115.083 19.838 116.301 19.838ZM124.735 23.604C122.691 23.604 121.473 22.834 121.291 21.406H122.915C123.083 22.106 123.699 22.442 124.777 22.442C126.037 22.442 126.555 21.882 126.555 20.636L126.569 19.348H126.499C126.163 20.244 125.267 20.846 124.105 20.846C122.341 20.846 121.165 19.474 121.165 17.15C121.165 14.812 122.341 13.44 124.105 13.44C125.253 13.44 126.163 14.028 126.513 14.952H126.583L126.625 13.58H128.095V20.426C128.095 22.75 126.849 23.604 124.735 23.604ZM124.623 19.572C125.813 19.572 126.555 18.578 126.555 17.43V16.828C126.555 15.708 125.841 14.7 124.637 14.7C123.475 14.7 122.747 15.582 122.747 17.15C122.747 18.704 123.461 19.572 124.623 19.572ZM129.881 21V10.556H131.421V21H129.881ZM136.364 21.126C134.124 21.126 132.808 19.628 132.808 17.332C132.808 14.966 134.166 13.454 136.308 13.454C138.702 13.454 139.906 15.148 139.738 17.598H134.376C134.362 19.11 135.132 19.936 136.364 19.936C137.316 19.936 137.932 19.488 138.156 18.76H139.668C139.402 20.23 138.114 21.126 136.364 21.126ZM134.348 16.59H138.198C138.142 15.302 137.4 14.644 136.294 14.644C135.202 14.644 134.446 15.372 134.348 16.59ZM148.906 21.126C145.994 21.126 144.076 19.152 144.076 15.904C144.076 12.642 145.994 10.682 148.906 10.682C151.37 10.682 153.078 12.026 153.414 14.21H151.734C151.454 12.922 150.404 12.082 148.906 12.082C146.974 12.082 145.756 13.468 145.756 15.904C145.756 18.34 146.974 19.712 148.906 19.712C150.376 19.712 151.482 18.886 151.734 17.57H153.414C153.106 19.768 151.37 21.126 148.906 21.126ZM154.894 21V10.556H156.434V21H154.894ZM161.489 21.126C159.347 21.126 157.905 19.656 157.905 17.304C157.905 15.008 159.263 13.454 161.489 13.454C163.617 13.454 165.045 14.924 165.045 17.29C165.045 19.572 163.701 21.126 161.489 21.126ZM161.475 19.838C162.693 19.838 163.477 18.942 163.477 17.29C163.477 15.638 162.707 14.728 161.489 14.728C160.257 14.728 159.473 15.638 159.473 17.304C159.473 18.942 160.257 19.838 161.475 19.838ZM169.017 21.126C167.393 21.126 166.469 20.118 166.469 18.186V13.58H168.009V17.794C168.009 19.11 168.471 19.852 169.591 19.852C170.697 19.852 171.453 18.942 171.453 17.612V13.58H172.979V21H171.523L171.453 19.488H171.383C171.019 20.51 170.137 21.126 169.017 21.126ZM177.427 21.126C175.663 21.126 174.473 19.684 174.473 17.29C174.473 14.882 175.663 13.454 177.427 13.454C178.589 13.454 179.471 14.084 179.793 15.022H179.863L179.849 10.556H181.389V21H179.933L179.877 19.558H179.807C179.471 20.496 178.589 21.126 177.427 21.126ZM177.945 19.838C179.163 19.838 179.849 18.844 179.849 17.626V16.968C179.849 15.736 179.163 14.728 177.987 14.728C176.755 14.728 176.055 15.694 176.055 17.29C176.055 18.872 176.727 19.838 177.945 19.838Z" fill="white"/>
</g>
<rect x="0.5" y="0.5" width="193" height="31" rx="5.5" stroke="#89B6FF"/>
<defs>
<clipPath id="clip0_94_317">
<rect width="194" height="32" rx="6" fill="white"/>
</clipPath>
</defs>
</svg>
