<svg width="168" height="32" viewBox="0 0 168 32" fill="none" xmlns="http://www.w3.org/2000/svg">
<g clip-path="url(#clip0_94_363)">
<rect width="168" height="32" rx="6" fill="#8A05FF"/>
<mask id="path-3-inside-1_94_363" fill="white">
<path d="M0 0H32V32H0V0Z"/>
</mask>
<path d="M32 0H31V32H32H33V0H32Z" fill="#B765FF" mask="url(#path-3-inside-1_94_363)"/>
<path d="M20.1928 7.97091C18.1038 7.87258 16.3471 9.38321 16.0474 11.3735C16.0356 11.4659 16.0177 11.5553 16.0029 11.6447C15.537 14.1236 13.3679 16.0008 10.7626 16.0008C9.83381 16.0008 8.96142 15.7624 8.20178 15.3453C8.10979 15.2946 8 15.3602 8 15.4644V15.9978V24.0336H16V18.009C16 16.9006 16.896 16.0008 17.9999 16.0008H19.9999C22.264 16.0008 24.0859 14.1147 23.9969 11.8205C23.9168 9.75565 22.2492 8.06923 20.1928 7.97091Z" fill="white"/>
<path d="M44.6574 21V10.794H48.7594C51.6574 10.794 53.3514 12.796 53.3514 15.904C53.3514 19.012 51.6574 21 48.7594 21H44.6574ZM48.5214 19.586C50.4954 19.586 51.6854 18.312 51.6854 15.876C51.6854 13.426 50.4674 12.194 48.5214 12.194H46.2674V19.586H48.5214ZM58.1381 21.126C55.8981 21.126 54.5821 19.628 54.5821 17.332C54.5821 14.966 55.9401 13.454 58.0821 13.454C60.4761 13.454 61.6801 15.148 61.5121 17.598H56.1501C56.1361 19.11 56.9061 19.936 58.1381 19.936C59.0901 19.936 59.7061 19.488 59.9301 18.76H61.4421C61.1761 20.23 59.8881 21.126 58.1381 21.126ZM56.1221 16.59H59.9721C59.9161 15.302 59.1741 14.644 58.0681 14.644C56.9761 14.644 56.2201 15.372 56.1221 16.59ZM62.8488 23.394V13.58H64.3048L64.3608 15.036H64.4448C64.7808 14.098 65.6628 13.454 66.8108 13.454C68.6028 13.454 69.7648 14.882 69.7648 17.29C69.7648 19.712 68.6028 21.126 66.8108 21.126C65.6628 21.126 64.7808 20.51 64.4448 19.586H64.3888V23.394H62.8488ZM66.2508 19.852C67.4688 19.852 68.1828 18.9 68.1828 17.29C68.1828 15.694 67.4828 14.742 66.2928 14.742C65.0888 14.742 64.3888 15.722 64.3888 16.94V17.654C64.3888 18.872 65.0748 19.852 66.2508 19.852ZM71.269 21V10.556H72.809V21H71.269ZM77.8643 21.126C75.7223 21.126 74.2803 19.656 74.2803 17.304C74.2803 15.008 75.6383 13.454 77.8643 13.454C79.9923 13.454 81.4203 14.924 81.4203 17.29C81.4203 19.572 80.0763 21.126 77.8643 21.126ZM77.8503 19.838C79.0683 19.838 79.8523 18.942 79.8523 17.29C79.8523 15.638 79.0823 14.728 77.8643 14.728C76.6323 14.728 75.8483 15.638 75.8483 17.304C75.8483 18.942 76.6323 19.838 77.8503 19.838ZM82.4854 23.45V22.176H83.2974C83.9414 22.176 84.2774 21.938 84.5014 21.336L84.8234 20.468L81.9674 13.58H83.6614L85.5514 18.816H85.6214L86.1254 17.262L87.3854 13.58H89.0234L85.9854 21.714C85.5234 22.988 84.7954 23.45 83.5634 23.45H82.4854ZM95.6675 21C94.5335 21 93.9875 20.482 93.9875 19.278V14.84H92.6155V13.58H93.9875V11.48L95.5135 11.284V13.58H97.0955V14.84H95.5135V18.998C95.5135 19.516 95.7515 19.712 96.2135 19.712H97.1095V21H95.6675ZM101.51 21.126C99.3681 21.126 97.9261 19.656 97.9261 17.304C97.9261 15.008 99.2841 13.454 101.51 13.454C103.638 13.454 105.066 14.924 105.066 17.29C105.066 19.572 103.722 21.126 101.51 21.126ZM101.496 19.838C102.714 19.838 103.498 18.942 103.498 17.29C103.498 15.638 102.728 14.728 101.51 14.728C100.278 14.728 99.4941 15.638 99.4941 17.304C99.4941 18.942 100.278 19.838 101.496 19.838ZM109.843 21V10.794H114.673C116.689 10.794 117.907 11.746 117.907 13.552C117.907 14.826 117.249 15.694 116.031 16.03V16.114C117.179 16.324 117.683 16.968 117.683 18.144V19.838C117.683 20.258 117.697 20.65 117.851 21H116.213C116.101 20.762 116.045 20.342 116.045 19.824V18.438C116.045 17.444 115.653 16.912 114.309 16.912H111.467V21H109.843ZM111.467 15.582H114.323C115.667 15.582 116.241 14.882 116.241 13.832C116.241 12.642 115.471 12.166 114.323 12.166H111.467V15.582ZM122.653 21.126C120.413 21.126 119.097 19.628 119.097 17.332C119.097 14.966 120.455 13.454 122.597 13.454C124.991 13.454 126.195 15.148 126.027 17.598H120.665C120.651 19.11 121.421 19.936 122.653 19.936C123.605 19.936 124.221 19.488 124.445 18.76H125.957C125.691 20.23 124.403 21.126 122.653 21.126ZM120.637 16.59H124.487C124.431 15.302 123.689 14.644 122.583 14.644C121.491 14.644 120.735 15.372 120.637 16.59ZM127.35 21V13.58H128.82L128.876 15.078H128.946C129.366 14.014 130.29 13.454 131.34 13.454C132.824 13.454 133.86 14.364 133.86 16.562V21H132.334V16.898C132.334 15.428 131.83 14.742 130.766 14.742C129.646 14.742 128.89 15.652 128.89 16.926V21H127.35ZM138.279 21.126C136.515 21.126 135.325 19.684 135.325 17.29C135.325 14.882 136.515 13.454 138.279 13.454C139.441 13.454 140.323 14.084 140.645 15.022H140.715L140.701 10.556H142.241V21H140.785L140.729 19.558H140.659C140.323 20.496 139.441 21.126 138.279 21.126ZM138.797 19.838C140.015 19.838 140.701 18.844 140.701 17.626V16.968C140.701 15.736 140.015 14.728 138.839 14.728C137.607 14.728 136.907 15.694 136.907 17.29C136.907 18.872 137.579 19.838 138.797 19.838ZM147.189 21.126C144.949 21.126 143.633 19.628 143.633 17.332C143.633 14.966 144.991 13.454 147.133 13.454C149.527 13.454 150.731 15.148 150.563 17.598H145.201C145.187 19.11 145.957 19.936 147.189 19.936C148.141 19.936 148.757 19.488 148.981 18.76H150.493C150.227 20.23 148.939 21.126 147.189 21.126ZM145.173 16.59H149.023C148.967 15.302 148.225 14.644 147.119 14.644C146.027 14.644 145.271 15.372 145.173 16.59ZM151.872 21V13.58H153.258L153.328 14.91H153.384C153.706 13.986 154.504 13.496 155.47 13.496H155.792V14.98C155.694 14.966 155.582 14.966 155.456 14.966C154.154 14.966 153.482 15.638 153.412 16.842V21H151.872Z" fill="white"/>
</g>
<rect x="0.5" y="0.5" width="167" height="31" rx="5.5" stroke="#B765FF"/>
<defs>
<clipPath id="clip0_94_363">
<rect width="168" height="32" rx="6" fill="white"/>
</clipPath>
</defs>
</svg>
