<svg width="175" height="32" viewBox="0 0 175 32" fill="none" xmlns="http://www.w3.org/2000/svg">
<g clip-path="url(#clip0_91_55)">
<rect width="175" height="32" rx="6" fill="#1A1A1A"/>
<mask id="path-3-inside-1_91_55" fill="white">
<path d="M0 0H32V32H0V0Z"/>
</mask>
<path d="M32 0H31V32H32H33V0H32Z" fill="#3A3A3A" mask="url(#path-3-inside-1_91_55)"/>
<g clip-path="url(#clip1_91_55)">
<path d="M19.6801 8.73819V9.22928C19.6842 9.32341 19.7006 9.39298 19.721 9.47483C19.8226 9.82975 19.9891 10.1628 20.2121 10.457C20.294 10.5511 20.4454 10.6207 20.4986 10.7435C20.6623 10.8826 20.8915 11.0218 21.0715 11.1118C21.1411 11.1363 21.3048 11.1568 21.358 11.1936C21.4357 11.2468 21.4767 11.2878 21.358 11.3573V11.3983C21.3334 11.4719 21.2802 11.5415 21.2352 11.6029C21.1534 11.712 21.0579 11.8075 20.9487 11.8893C20.7728 12.0203 20.56 12.1676 20.3349 12.1758H20.294C20.2394 12.2195 20.1712 12.2468 20.0893 12.2577H19.9256C19.7128 12.2863 19.3977 12.3477 19.189 12.2577H18.9435C18.878 12.2577 18.8207 12.2249 18.7798 12.2167H18.657C18.5708 12.2051 18.4875 12.1773 18.4115 12.1349H18.3705C18.2682 12.1308 18.2068 12.0858 18.125 12.053L17.9613 12.0121C17.6175 11.9303 17.1305 11.742 16.8563 11.521H16.8154C16.6272 11.4801 16.4266 11.3451 16.2548 11.2632C16.0829 11.1814 15.8251 11.1404 15.7105 10.989H15.6695C15.5058 10.9481 15.3053 10.8458 15.1785 10.7435H15.1375C14.8592 10.678 14.581 10.4979 14.319 10.3752C14.053 10.2606 13.7216 10.1419 13.5006 9.96592H13.4596C13.1732 9.91681 12.8294 9.80222 12.5593 9.72037H8.58968C8.37278 9.89635 8.02902 9.89635 7.8244 10.1419C7.61978 10.3874 7.43562 10.5798 7.32103 10.8662C7.30466 10.9276 7.28829 10.9604 7.28011 11.0299C7.27192 11.0954 7.24737 11.1936 7.23918 11.2346V13.3217C7.24737 13.3708 7.27192 13.4526 7.28011 13.5263C7.28829 13.6082 7.30057 13.6573 7.32103 13.7309C7.3888 13.9013 7.47095 14.0656 7.56657 14.222C7.59931 14.2507 7.62387 14.3121 7.64842 14.3448C7.72209 14.4266 7.84895 14.4839 7.89397 14.5903C8.28275 14.93 8.85568 15.0119 9.24446 15.327H9.28539C9.4941 15.3761 9.77647 15.5234 9.94017 15.6544H9.9811C10.1448 15.6953 10.3453 15.7976 10.4722 15.8999H10.5131C10.6386 15.9326 10.7477 15.9872 10.8405 16.0636H10.8814C10.9633 16.0677 10.9878 16.1168 11.0451 16.1455C11.1106 16.1782 11.1556 16.1741 11.2088 16.2273H11.2497C11.3179 16.2355 11.3725 16.2628 11.4134 16.3092H11.4544C11.5771 16.3378 11.7286 16.391 11.8227 16.4728H11.8636C12.0559 16.5056 12.412 16.5997 12.5593 16.7184H12.6002C12.7025 16.7225 12.7639 16.7716 12.8458 16.8002C12.9194 16.8166 12.9686 16.833 13.0504 16.8412C13.1322 16.8521 13.2005 16.8657 13.255 16.8821C13.3205 16.8739 13.3369 16.8821 13.3778 16.923H13.4187C13.4869 16.9094 13.5415 16.923 13.5824 16.9639H13.6233C13.6915 16.9503 13.7461 16.9639 13.787 17.0049H13.828C13.918 16.9967 14.0121 16.9926 14.0735 17.0458H14.1144C14.2236 17.0349 14.319 17.0485 14.4009 17.0867H16.2425C16.2916 17.0785 16.3693 17.0458 16.4471 17.0458H16.6926C16.754 17.0212 16.8113 16.9926 16.8973 17.0049H16.9382C16.9791 16.9667 17.0337 16.953 17.1019 16.9639H17.1428C17.1837 16.9257 17.2383 16.9121 17.3065 16.923H17.3474C17.4456 16.8698 17.5521 16.8575 17.6748 16.8412L17.8794 16.8002C17.9613 16.7716 18.0268 16.7348 18.125 16.7184C18.2887 16.6897 18.4196 16.6488 18.5752 16.5956C18.6693 16.5547 18.747 16.4933 18.8616 16.4728H18.9025C18.9435 16.4265 18.998 16.3992 19.0662 16.391H19.1072C19.1849 16.3296 19.2668 16.3092 19.3527 16.2682C19.4318 16.2246 19.5137 16.1837 19.5983 16.1455C19.7525 16.0869 19.9029 16.0185 20.0484 15.9408C20.2285 15.8262 20.4126 15.6953 20.6214 15.6134C20.6214 15.6134 20.6459 15.6216 20.6623 15.6134C20.7359 15.4989 20.9487 15.417 21.0715 15.3679C21.0715 15.3679 21.0961 15.3761 21.1124 15.3679C21.1738 15.2697 21.3293 15.2042 21.4398 15.1633C21.4398 15.1633 21.4644 15.1715 21.4808 15.1633C21.5421 15.0651 21.6977 14.9996 21.8082 14.9587C21.8082 14.9587 21.8327 14.9668 21.8491 14.9587C21.9023 14.8768 22.0046 14.8318 22.0946 14.795C22.0946 14.795 22.1192 14.8031 22.1355 14.795C22.2174 14.6722 22.4507 14.5658 22.5857 14.5085L22.7903 14.4266C23.0482 14.2711 23.2732 14.0338 23.527 13.8537V13.8128C23.527 13.735 23.5106 13.6409 23.527 13.5672C23.486 13.3831 23.3674 13.3422 23.2405 13.2398H23.1996C23.1505 13.2398 23.085 13.2317 23.0359 13.2398C22.6717 13.3094 22.3606 13.7023 22.0046 13.8455C21.6445 13.9847 21.313 14.2834 20.9487 14.4266H20.9078C20.4618 14.8604 19.7128 15.0814 19.1604 15.3802C18.6079 15.6789 17.7853 16.0472 17.1428 16.0636H17.1019C17.061 16.1018 17.0064 16.1154 16.9382 16.1045H16.8973C16.8563 16.1427 16.8018 16.1564 16.7336 16.1455H16.6926C16.6313 16.1987 16.533 16.1946 16.4471 16.1864H16.4062C16.3366 16.2396 16.2179 16.2355 16.1197 16.2273C16.0788 16.2355 16.0215 16.2682 15.956 16.2682H15.7514C15.4813 16.2682 15.203 16.2846 14.9329 16.2682C14.8552 16.2641 14.8224 16.2805 14.7692 16.2273H14.4418C14.3272 16.2191 14.2086 16.1741 14.1144 16.1455H14.0326C13.8771 16.1564 13.7407 16.1291 13.6233 16.0636H13.5824C13.4596 16.0636 13.3505 16.0363 13.255 15.9818H13.2141C13.1256 15.9818 13.0394 15.953 12.9686 15.8999H12.9276C12.6862 15.8917 12.4365 15.7444 12.2319 15.6544L12.0682 15.6134C11.9987 15.593 11.9536 15.5848 11.9045 15.5316H11.8636C11.7954 15.5261 11.7408 15.4989 11.6999 15.4497H11.659C11.5662 15.4252 11.4844 15.3843 11.4134 15.327H11.3725C11.2293 15.2942 11.0738 15.2083 10.9633 15.1224H10.9223C10.8528 15.1224 10.8323 15.0937 10.7996 15.0405H10.7587C10.2839 14.93 9.80921 14.5699 9.35905 14.3939C8.90888 14.222 8.29912 14.0174 8.13951 13.5263H8.30321C8.96618 13.5263 9.64552 13.4854 10.3085 13.5263C10.3781 13.5304 10.4313 13.5591 10.4722 13.5672C10.5581 13.5836 10.6113 13.5468 10.6768 13.6082H10.7177C10.8651 13.6123 11.0615 13.6818 11.1679 13.7719H11.2088C11.4755 13.8252 11.7271 13.9371 11.9455 14.0993H11.9864C12.1119 14.132 12.221 14.1866 12.3138 14.2629H12.3547C12.5266 14.3039 12.6944 14.4021 12.8458 14.4676C12.9385 14.5003 13.034 14.5276 13.1322 14.5494C13.3655 14.6026 13.6643 14.6435 13.8689 14.754H13.9098C14.0612 14.7459 14.1963 14.7991 14.319 14.8359H14.6874C14.7528 14.8359 14.8101 14.8686 14.8511 14.8768H16.1606C16.2507 14.8113 16.4062 14.8359 16.5289 14.8359H16.5699C16.8578 14.7281 17.1627 14.6726 17.4702 14.6722C17.5732 14.6245 17.6843 14.5967 17.7976 14.5903C17.8672 14.533 17.949 14.5249 18.0431 14.5085C18.2097 14.4801 18.3739 14.4391 18.5342 14.3857C18.6284 14.3448 18.7061 14.2834 18.8207 14.2629H18.8616C18.9025 14.2166 18.9571 14.1893 19.0253 14.1811H19.0662C19.144 14.1197 19.2136 14.0911 19.3118 14.0583L19.4346 14.0174C19.6023 13.9233 19.7783 13.8046 19.9666 13.7309C19.9666 13.7309 19.9911 13.7391 20.0075 13.7309C20.0689 13.6327 20.2653 13.5263 20.3758 13.4854C20.3758 13.4854 20.4004 13.4936 20.4167 13.4854C20.6336 13.1539 21.137 12.9738 21.4317 12.6587C21.7222 12.3395 21.9309 11.8893 22.2174 11.6029V11.562C22.2288 11.4884 22.2568 11.4185 22.2992 11.3573C22.3852 11.2673 22.6635 11.3164 22.7903 11.3164C22.8449 11.3219 22.8995 11.3219 22.954 11.3164C22.995 11.3082 23.0482 11.2673 23.1177 11.2755H23.1587C23.2159 11.2346 23.2842 11.2073 23.3633 11.1936H23.4042C23.4615 11.1418 23.5297 11.1009 23.6088 11.0709C23.6088 11.0709 23.6334 11.0791 23.6497 11.0709C24.0181 10.6903 24.3864 10.4406 24.591 9.92499C24.636 9.81041 24.7342 9.66308 24.7547 9.55668C24.7629 9.51575 24.7629 9.4339 24.7547 9.39298C24.6933 9.14744 24.2513 9.29476 24.1122 9.48711C23.973 9.67945 23.5556 9.72037 23.3223 9.72037H23.0359C22.7167 9.89635 22.246 9.95364 22.0946 10.3752C22.0294 10.1536 21.9143 9.94995 21.7583 9.77972C21.6022 9.60948 21.4093 9.4772 21.1943 9.39298C21.1329 9.37252 21.092 9.36433 21.0306 9.35206C20.9447 9.33159 20.8833 9.34387 20.826 9.27021H20.7851C20.5892 9.21936 20.4162 9.10403 20.294 8.94281C20.2121 8.82414 20.1548 8.67681 20.0484 8.5745H20.0075C19.8479 8.54994 19.7579 8.61542 19.6801 8.73819ZM12.2728 10.5798H12.3138C12.4038 10.5716 12.4979 10.5675 12.5593 10.6207H12.6002C12.6684 10.6071 12.723 10.6207 12.7639 10.6616H12.8049C13.0592 10.6893 13.3005 10.7886 13.5006 10.9481H13.5415C13.7216 10.989 13.8771 11.1159 14.0326 11.1936C14.1185 11.2346 14.2004 11.255 14.2781 11.3164H14.319C14.4827 11.3573 14.6833 11.4596 14.8101 11.562H14.8511C15.0148 11.6029 15.2153 11.7052 15.3421 11.8075H15.3831C15.5468 11.8484 15.7473 11.9507 15.8742 12.053H15.9151C16.2252 12.1331 16.5169 12.272 16.7745 12.4623H16.8154C16.9587 12.495 17.1142 12.581 17.2247 12.6669H17.2656C17.5152 12.7242 17.7689 12.8715 18.0022 12.9534C18.0759 12.9697 18.125 12.9861 18.2068 12.9943C18.2805 13.0025 18.3583 13.027 18.4115 13.0352C18.4797 13.0216 18.5342 13.0352 18.5752 13.0761H18.8207C18.923 13.0761 18.9844 13.0884 19.0662 13.1171H19.189C19.1699 13.1744 19.129 13.2016 19.0662 13.1989C18.8683 13.3353 18.646 13.4326 18.4115 13.4854L18.0022 13.6082C17.9204 13.6409 17.8631 13.6859 17.7567 13.69H17.7157C17.6093 13.7759 17.4088 13.8128 17.2656 13.8128H17.2247C17.0978 13.9151 16.7868 13.956 16.6108 13.9356H16.5699C16.5085 13.9888 16.4103 13.9847 16.3243 13.9765C16.2834 13.9847 16.2261 14.0174 16.1606 14.0174H15.7105C15.555 14.0338 15.3708 14.0338 15.2194 14.0174H14.8511C14.7569 14.0174 14.6751 13.9888 14.6055 13.9765H14.4827C14.4091 13.9765 14.3641 13.9478 14.319 13.9356C14.1758 13.9028 14.0326 13.9069 13.9098 13.8537H13.8689C13.7011 13.8251 13.4678 13.7964 13.3369 13.69H13.2959C13.1868 13.6736 13.0913 13.6327 13.0095 13.5672H12.9686C12.9003 13.5618 12.8458 13.5345 12.8049 13.4854H12.7639C12.6712 13.4608 12.5893 13.4199 12.5184 13.3626H12.4775C12.1828 13.293 11.9332 13.1212 11.6508 13.0025C11.3643 12.8879 10.9878 12.8265 10.7177 12.7078H10.2676C9.69463 12.7078 9.08486 12.7201 8.54875 12.6669C8.45463 12.6669 8.35232 12.6792 8.26228 12.6669C8.2109 12.6589 8.1634 12.6347 8.12663 12.5979C8.08985 12.5612 8.06571 12.5137 8.05766 12.4623C7.984 12.2659 8.04129 12.0367 8.05766 11.8484C8.05766 11.6725 8.04129 11.4924 8.05766 11.3164C8.06585 11.1855 8.1477 11.0177 8.22136 10.9072C8.27592 10.8253 8.34413 10.7571 8.42598 10.7026C8.51192 10.6207 8.64697 10.6084 8.75337 10.5798C9.39179 10.4202 10.2389 10.5389 10.9223 10.5389C11.1352 10.5389 11.4134 10.5184 11.6181 10.5389C11.8227 10.5593 12.1173 10.4652 12.2728 10.5798Z" fill="#EDEDED" stroke="#EDEDED" stroke-width="0.0409241"/>
<path d="M10.3494 11.8487V11.8896C10.4231 12.0083 10.5336 12.1065 10.6768 12.1351C10.6891 12.127 10.8282 12.127 10.8405 12.1351C11.127 12.0778 11.217 11.775 11.127 11.5213V11.4804C11.0496 11.3989 10.95 11.342 10.8405 11.3167C10.8282 11.3248 10.6891 11.3248 10.6768 11.3167C10.4108 11.3699 10.3249 11.5949 10.3494 11.8487Z" fill="#EDEDED" stroke="#EDEDED" stroke-width="0.0409241"/>
<path d="M22.7494 15.0817H22.7085C21.9637 15.6792 21.0224 16.0884 20.253 16.6777C19.4755 17.2588 18.5056 17.8768 17.5521 18.0691L17.3884 18.11C17.2901 18.151 17.2247 18.1919 17.1019 18.1919H17.061C16.9655 18.2465 16.8563 18.2737 16.7336 18.2737H16.6926C16.6394 18.3229 16.5699 18.3188 16.488 18.3147H16.4062C16.3352 18.3447 16.2534 18.3583 16.1606 18.3556H16.0788C15.956 18.4047 15.8128 18.3965 15.6695 18.3965C15.4117 18.4211 15.1048 18.4211 14.8511 18.3965C14.7119 18.3965 14.5073 18.4333 14.4009 18.3556H14.36C14.2699 18.3638 14.1758 18.3679 14.1144 18.3147H14.0735C13.9917 18.3229 13.9221 18.3229 13.8689 18.2737H13.828C13.5169 18.2942 13.1527 18.1346 12.8867 18.0282L12.723 17.9873C12.1989 17.8491 11.6993 17.631 11.2416 17.3407C10.8159 17.0706 10.2921 16.8168 9.91152 16.5017C9.53502 16.1866 8.93753 15.9779 8.67152 15.5728H8.6306C8.53648 15.5155 8.44644 15.4623 8.38506 15.3681H8.34413C8.18044 15.2658 7.99628 15.1553 7.85304 15.0407H7.48473C7.42177 15.0619 7.36571 15.0997 7.32249 15.1501C7.27926 15.2006 7.25048 15.2618 7.23918 15.3272C7.25146 15.4623 7.23918 15.6014 7.23918 15.7365V16.1048C7.24737 16.1702 7.28011 16.2603 7.28011 16.3503V16.4731C7.28829 16.514 7.32921 16.5631 7.32103 16.6368V16.6777C7.37014 16.7268 7.35377 16.7677 7.36195 16.8414C7.39469 17.1156 7.48473 17.357 7.56657 17.619C7.63615 17.7949 7.73846 17.9914 7.77119 18.1919V18.2328C7.8203 18.2737 7.84759 18.3283 7.85304 18.3965V18.4374C7.94215 18.5624 8.01118 18.7004 8.05766 18.8467C8.08631 18.9285 8.09859 18.9695 8.13951 19.0513C8.4669 19.571 8.78202 20.0949 9.19535 20.5778C9.60459 21.0566 10.0466 21.4208 10.5213 21.8219C11.0001 22.227 11.6794 22.3948 12.1501 22.7754H12.191C12.2592 22.7836 12.3138 22.8109 12.3547 22.8572H12.3956C12.5102 22.8736 12.5921 22.9391 12.6821 22.98L12.9686 23.0619C13.2018 23.1151 13.5006 23.156 13.7052 23.2665H13.7461C13.8321 23.2542 13.8934 23.2992 13.9507 23.3074H14.0735C14.1881 23.3156 14.3109 23.3483 14.4009 23.3893H14.7283C14.8142 23.3893 14.9165 23.422 14.9738 23.4302H15.8332C15.8823 23.422 15.9642 23.3893 16.0379 23.3893H16.4062C16.5412 23.3483 16.6926 23.291 16.8563 23.3074H16.8973C17.0078 23.2174 17.2001 23.2092 17.3474 23.1846C17.4585 23.1656 17.5679 23.1382 17.6748 23.1028C17.9408 22.9964 18.2437 22.845 18.5342 22.7754H18.5752C18.923 22.4971 19.4182 22.3784 19.7701 22.0879C20.1262 21.8014 20.519 21.564 20.8669 21.2612C21.047 21.1057 21.2352 20.8929 21.3989 20.7292C22.0046 20.1235 22.246 19.3132 22.7494 18.683V18.6421C22.774 18.5493 22.8149 18.4675 22.8722 18.3965V18.3556C22.8804 18.2874 22.9076 18.2328 22.954 18.1919V18.151C22.9745 18.0159 23.0359 17.799 23.1177 17.7008V17.6599C23.1177 17.5644 23.145 17.4825 23.1996 17.4143V17.3734C23.2446 17.0992 23.2978 16.7596 23.4042 16.514V16.4731C23.396 16.3912 23.396 16.3217 23.4451 16.2685V15.9411C23.4451 15.7242 23.4247 15.4991 23.4451 15.2863C23.4129 15.1915 23.3565 15.1069 23.2814 15.0407C23.2405 15.0203 23.2364 15.0244 23.1996 14.9998H22.954C22.8967 15.0407 22.8285 15.068 22.7494 15.0817ZM22.5039 16.6368C22.4179 17.1852 21.6363 17.4675 21.2352 17.8645C20.826 18.2533 20.2653 18.6421 19.8029 18.9695C19.3322 19.2968 18.7757 19.7757 18.2068 19.9107H18.1659C18.0452 19.9983 17.9045 20.0546 17.7567 20.0744H17.7157C17.5688 20.1702 17.3997 20.2265 17.2247 20.2381H17.1837C17.0882 20.2927 16.9791 20.3199 16.8563 20.3199H16.8154C16.7704 20.365 16.7213 20.3609 16.6517 20.3609H16.5699C16.5208 20.3772 16.4798 20.4018 16.4062 20.4018H16.3243C16.2507 20.4304 16.177 20.455 16.0788 20.4427H16.0379C15.9888 20.4918 15.9437 20.4836 15.8742 20.4836H15.6695C15.4363 20.5082 15.1662 20.5164 14.9329 20.4836H14.7692C14.6915 20.4836 14.6587 20.4591 14.6055 20.4427H14.36C14.2822 20.4427 14.2495 20.455 14.1963 20.4018H14.1554C14.0871 20.4154 14.0326 20.4018 13.9917 20.3609H13.9507C13.6192 20.3813 13.2632 20.2135 12.9604 20.1235C12.6575 20.0335 12.3138 19.9434 12.0682 19.747H12.0273C11.5035 19.5424 10.9183 19.1086 10.4845 18.7526C10.0507 18.3965 9.39997 18.0773 9.08077 17.619C9.06849 17.6108 9.03984 17.619 9.03984 17.619C8.80657 17.4389 8.3605 17.2097 8.26228 16.9232C8.22545 16.8168 8.22136 16.7023 8.18044 16.5959C8.1477 16.5058 8.07813 16.3912 8.09859 16.2685C9.23736 17.1252 10.4415 17.8915 11.6999 18.5602H11.7408C11.8336 18.5848 11.9154 18.6257 11.9864 18.683H12.0273C12.1419 18.6994 12.2237 18.7648 12.3138 18.8058C12.4502 18.8549 12.5866 18.8958 12.723 18.9285L12.9686 19.0104C13.0477 19.0267 13.1295 19.0404 13.2141 19.0513C13.2959 19.0622 13.3642 19.0759 13.4187 19.0922C13.4842 19.084 13.5006 19.0922 13.5415 19.1332H13.5824C13.6643 19.125 13.7338 19.125 13.787 19.1741H13.828C13.918 19.1618 13.9671 19.1904 14.0326 19.215H14.36C14.4255 19.215 14.4827 19.2518 14.5237 19.2559H16.1606C16.2343 19.2027 16.3489 19.2068 16.4471 19.215H16.488C16.5371 19.1659 16.619 19.1659 16.6926 19.1741H16.7336C16.7827 19.125 16.8645 19.125 16.9382 19.1332H16.9791C17.0241 19.0881 17.0732 19.0922 17.1428 19.0922H17.2247C17.3679 19.0227 17.507 18.9981 17.6748 18.9695L17.8385 18.9285C17.9777 18.8712 18.1291 18.8058 18.2887 18.7648C18.3501 18.7485 18.391 18.7444 18.4524 18.7239C18.5097 18.6953 18.5342 18.6462 18.6161 18.6421H18.657C18.7279 18.5848 18.8098 18.5438 18.9025 18.5193H18.9435C19.0458 18.4374 19.189 18.3638 19.3118 18.3147L19.4346 18.2737C19.4919 18.2369 19.5164 18.1714 19.5983 18.151H19.6392C19.6774 18.0909 19.7319 18.05 19.8029 18.0282H19.8438C20.1425 17.7131 20.6214 17.488 20.9774 17.2384C21.3375 16.9887 21.7222 16.6245 22.1355 16.4731C22.1519 16.4649 22.1765 16.4731 22.1765 16.4731C22.2801 16.3667 22.4029 16.2848 22.5448 16.2275C22.598 16.3298 22.5243 16.5017 22.5039 16.6368ZM21.6854 18.8876C21.6772 18.904 21.6854 18.9285 21.6854 18.9285C21.5462 19.3214 21.1656 19.7061 20.9078 20.0335C20.7603 20.2126 20.5959 20.3771 20.4167 20.5246C20.0748 20.8296 19.7095 21.1074 19.3241 21.3553C18.9353 21.5927 18.5056 21.961 18.0431 22.0388H18.0022C17.8815 22.1264 17.7408 22.1826 17.593 22.2025H17.5521C17.4211 22.3089 17.1878 22.3375 17.02 22.3662H16.9791C16.9382 22.4043 16.8836 22.418 16.8154 22.4071H16.7745C16.7336 22.4453 16.679 22.4589 16.6108 22.448H16.5699C16.3693 22.5421 16.1402 22.4889 15.9151 22.5298C15.8742 22.538 15.8128 22.5708 15.7514 22.5708C15.4977 22.5871 15.2276 22.5831 14.9738 22.5708C14.9002 22.5708 14.8183 22.538 14.7692 22.5298H14.6055C14.54 22.5298 14.4827 22.493 14.4418 22.4889H14.2781C14.1185 22.4766 13.918 22.4357 13.787 22.3662H13.7461C13.6111 22.3457 13.4392 22.3252 13.3369 22.2434H13.2959C13.1486 22.2393 12.9522 22.1697 12.8458 22.0797H12.8049C12.6453 22.0551 12.4775 21.9733 12.3547 21.8751H12.3138C11.6549 21.7196 10.996 21.1016 10.4722 20.6883C9.81668 20.0862 9.26376 19.3812 8.83522 18.6011C9.55958 19.0718 10.2676 19.6447 10.9633 20.1563H11.0042C11.1679 20.2217 11.528 20.3772 11.6181 20.5246H11.659C11.8472 20.5655 12.0846 20.6924 12.2319 20.811H12.2728C12.3411 20.8192 12.3956 20.8465 12.4365 20.8929H12.4775C12.6125 20.9133 12.8294 20.9747 12.9276 21.0566H12.9686C13.064 21.0566 13.1459 21.0839 13.2141 21.1384H13.255C13.3232 21.1248 13.3778 21.1384 13.4187 21.1794H13.4596C13.5278 21.1657 13.5824 21.1794 13.6233 21.2203H13.6643C13.8198 21.2121 13.9876 21.2612 14.1144 21.3021H14.4827C14.5482 21.3021 14.6055 21.3349 14.6464 21.3431H15.956C16.0051 21.3349 16.087 21.3021 16.1606 21.3021H16.488C16.7565 21.2276 17.03 21.1729 17.3065 21.1384L17.5111 21.0975C17.593 21.0689 17.6625 21.0361 17.7567 21.0157L17.9204 20.9747C17.9818 20.9502 18.0431 20.9052 18.125 20.8929H18.1659C18.2478 20.8274 18.3433 20.7865 18.4524 20.7701H18.4933C18.5642 20.7128 18.6461 20.6719 18.7388 20.6473H18.7798C19.2586 20.2627 19.9093 20.0498 20.3758 19.6242C20.8505 19.2027 21.3989 18.8671 21.89 18.4784C21.8771 18.636 21.8038 18.7827 21.6854 18.8876Z" fill="#EDEDED" stroke="#EDEDED" stroke-width="0.0409241"/>
</g>
<path d="M44.6574 21V10.794H48.7594C51.6574 10.794 53.3514 12.796 53.3514 15.904C53.3514 19.012 51.6574 21 48.7594 21H44.6574ZM48.5214 19.586C50.4954 19.586 51.6854 18.312 51.6854 15.876C51.6854 13.426 50.4674 12.194 48.5214 12.194H46.2674V19.586H48.5214ZM58.1381 21.126C55.8981 21.126 54.5821 19.628 54.5821 17.332C54.5821 14.966 55.9401 13.454 58.0821 13.454C60.4761 13.454 61.6801 15.148 61.5121 17.598H56.1501C56.1361 19.11 56.9061 19.936 58.1381 19.936C59.0901 19.936 59.7061 19.488 59.9301 18.76H61.4421C61.1761 20.23 59.8881 21.126 58.1381 21.126ZM56.1221 16.59H59.9721C59.9161 15.302 59.1741 14.644 58.0681 14.644C56.9761 14.644 56.2201 15.372 56.1221 16.59ZM62.8488 23.394V13.58H64.3048L64.3608 15.036H64.4448C64.7808 14.098 65.6628 13.454 66.8108 13.454C68.6028 13.454 69.7648 14.882 69.7648 17.29C69.7648 19.712 68.6028 21.126 66.8108 21.126C65.6628 21.126 64.7808 20.51 64.4448 19.586H64.3888V23.394H62.8488ZM66.2508 19.852C67.4688 19.852 68.1828 18.9 68.1828 17.29C68.1828 15.694 67.4828 14.742 66.2928 14.742C65.0888 14.742 64.3888 15.722 64.3888 16.94V17.654C64.3888 18.872 65.0748 19.852 66.2508 19.852ZM71.269 21V10.556H72.809V21H71.269ZM77.8643 21.126C75.7223 21.126 74.2803 19.656 74.2803 17.304C74.2803 15.008 75.6383 13.454 77.8643 13.454C79.9923 13.454 81.4203 14.924 81.4203 17.29C81.4203 19.572 80.0763 21.126 77.8643 21.126ZM77.8503 19.838C79.0683 19.838 79.8523 18.942 79.8523 17.29C79.8523 15.638 79.0823 14.728 77.8643 14.728C76.6323 14.728 75.8483 15.638 75.8483 17.304C75.8483 18.942 76.6323 19.838 77.8503 19.838ZM82.4854 23.45V22.176H83.2974C83.9414 22.176 84.2774 21.938 84.5014 21.336L84.8234 20.468L81.9674 13.58H83.6614L85.5514 18.816H85.6214L86.1254 17.262L87.3854 13.58H89.0234L85.9854 21.714C85.5234 22.988 84.7954 23.45 83.5634 23.45H82.4854ZM95.6675 21C94.5335 21 93.9875 20.482 93.9875 19.278V14.84H92.6155V13.58H93.9875V11.48L95.5135 11.284V13.58H97.0955V14.84H95.5135V18.998C95.5135 19.516 95.7515 19.712 96.2135 19.712H97.1095V21H95.6675ZM101.51 21.126C99.3681 21.126 97.9261 19.656 97.9261 17.304C97.9261 15.008 99.2841 13.454 101.51 13.454C103.638 13.454 105.066 14.924 105.066 17.29C105.066 19.572 103.722 21.126 101.51 21.126ZM101.496 19.838C102.714 19.838 103.498 18.942 103.498 17.29C103.498 15.638 102.728 14.728 101.51 14.728C100.278 14.728 99.4941 15.638 99.4941 17.304C99.4941 18.942 100.278 19.838 101.496 19.838ZM109.829 21V10.794H113.931C116.829 10.794 118.523 12.796 118.523 15.904C118.523 19.012 116.829 21 113.931 21H109.829ZM113.693 19.586C115.667 19.586 116.857 18.312 116.857 15.876C116.857 13.426 115.639 12.194 113.693 12.194H111.439V19.586H113.693ZM123.421 21.126C121.279 21.126 119.837 19.656 119.837 17.304C119.837 15.008 121.195 13.454 123.421 13.454C125.549 13.454 126.977 14.924 126.977 17.29C126.977 19.572 125.633 21.126 123.421 21.126ZM123.407 19.838C124.625 19.838 125.409 18.942 125.409 17.29C125.409 15.638 124.639 14.728 123.421 14.728C122.189 14.728 121.405 15.638 121.405 17.304C121.405 18.942 122.189 19.838 123.407 19.838ZM133.455 21L131.663 18.242L131.215 17.528L130.011 18.732V21H128.457V10.556H130.011V16.968L130.641 16.282L133.203 13.58H135.051L132.307 16.464L135.247 21H133.455ZM136.303 23.394V13.58H137.759L137.815 15.036H137.899C138.235 14.098 139.117 13.454 140.265 13.454C142.057 13.454 143.219 14.882 143.219 17.29C143.219 19.712 142.057 21.126 140.265 21.126C139.117 21.126 138.235 20.51 137.899 19.586H137.843V23.394H136.303ZM139.705 19.852C140.923 19.852 141.637 18.9 141.637 17.29C141.637 15.694 140.937 14.742 139.747 14.742C138.543 14.742 137.843 15.722 137.843 16.94V17.654C137.843 18.872 138.529 19.852 139.705 19.852ZM144.724 21V10.556H146.264V21H144.724ZM151.319 21.126C149.177 21.126 147.735 19.656 147.735 17.304C147.735 15.008 149.093 13.454 151.319 13.454C153.447 13.454 154.875 14.924 154.875 17.29C154.875 19.572 153.531 21.126 151.319 21.126ZM151.305 19.838C152.523 19.838 153.307 18.942 153.307 17.29C153.307 15.638 152.537 14.728 151.319 14.728C150.087 14.728 149.303 15.638 149.303 17.304C149.303 18.942 150.087 19.838 151.305 19.838ZM155.94 23.45V22.176H156.752C157.396 22.176 157.732 21.938 157.956 21.336L158.278 20.468L155.422 13.58H157.116L159.006 18.816H159.076L159.58 17.262L160.84 13.58H162.478L159.44 21.714C158.978 22.988 158.25 23.45 157.018 23.45H155.94Z" fill="#EDEDED"/>
</g>
<rect x="0.5" y="0.5" width="174" height="31" rx="5.5" stroke="#3A3A3A"/>
<defs>
<clipPath id="clip0_91_55">
<rect width="175" height="32" rx="6" fill="white"/>
</clipPath>
<clipPath id="clip1_91_55">
<rect width="17.5216" height="14.8604" fill="white" transform="translate(7.23918 8.56982)"/>
</clipPath>
</defs>
</svg>
