<svg width="189" height="32" viewBox="0 0 189 32" fill="none" xmlns="http://www.w3.org/2000/svg">
<g filter="url(#filter0_i_91_78)">
<g clip-path="url(#clip0_91_78)">
<rect width="189" height="32" rx="6" fill="url(#paint0_linear_91_78)"/>
<mask id="path-3-inside-1_91_78" fill="white">
<path d="M0 0H32V32H0V0Z"/>
</mask>
<path d="M32 0H31V32H32H33V0H32Z" fill="#F7A763" mask="url(#path-3-inside-1_91_78)"/>
<path d="M19.9654 20.1387C20.0355 19.9532 20.0602 19.7535 20.0374 19.5565C20.0147 19.3595 19.9452 19.1707 19.8347 19.006C19.7212 18.8699 19.5819 18.7576 19.425 18.6753C19.268 18.5931 19.0963 18.5426 18.9198 18.5268L11.3395 18.4397C11.2959 18.4397 11.2524 18.3961 11.2088 18.3961C11.1986 18.3885 11.1904 18.3786 11.1847 18.3673C11.1791 18.3559 11.1761 18.3434 11.1761 18.3308C11.1761 18.3181 11.1791 18.3056 11.1847 18.2942C11.1904 18.2829 11.1986 18.273 11.2088 18.2654C11.2524 18.1783 11.2959 18.1347 11.383 18.1347L19.0069 18.0476C19.4909 17.9939 19.9519 17.8122 20.3424 17.5212C20.7329 17.2303 21.0388 16.8405 21.2288 16.3921L21.6644 15.2594C21.6644 15.2159 21.708 15.1723 21.6644 15.1287C21.4276 14.0738 20.8528 13.125 20.0275 12.4265C19.2021 11.728 18.1714 11.318 17.0918 11.2589C16.0121 11.1997 14.9427 11.4946 14.046 12.0987C13.1493 12.7028 12.4743 13.5832 12.1237 14.6059C11.6684 14.2808 11.1131 14.1265 10.5553 14.1703C10.0435 14.2274 9.56623 14.4568 9.20205 14.821C8.83787 15.1852 8.60839 15.6624 8.55132 16.1743C8.52231 16.4363 8.53703 16.7013 8.59488 16.9585C7.76668 16.9814 6.98009 17.3265 6.40244 17.9204C5.82478 18.5143 5.50164 19.3102 5.50176 20.1387C5.49461 20.2997 5.50926 20.4609 5.54532 20.6179C5.54732 20.6519 5.56174 20.684 5.58583 20.7081C5.60992 20.7322 5.64201 20.7466 5.67602 20.7486H19.6604C19.7475 20.7486 19.8347 20.7051 19.8347 20.6179L19.9654 20.1387Z" fill="#F48120"/>
<path d="M22.3613 15.2591H22.1435C22.0999 15.2591 22.0563 15.3026 22.0128 15.3462L21.7078 16.3918C21.6377 16.5773 21.613 16.7769 21.6358 16.974C21.6585 17.171 21.728 17.3598 21.8385 17.5245C21.952 17.6606 22.0912 17.7729 22.2482 17.8552C22.4052 17.9374 22.5769 17.9879 22.7534 18.0037L24.3653 18.0908C24.4089 18.0908 24.4524 18.1344 24.496 18.1344C24.5061 18.142 24.5144 18.1518 24.52 18.1632C24.5257 18.1745 24.5287 18.187 24.5287 18.1997C24.5287 18.2124 24.5257 18.2249 24.52 18.2363C24.5144 18.2476 24.5061 18.2575 24.496 18.2651C24.4524 18.3522 24.4089 18.3958 24.3217 18.3958L22.6663 18.4829C22.1822 18.5366 21.7213 18.7183 21.3308 19.0093C20.9403 19.3002 20.6343 19.6899 20.4444 20.1384L20.3573 20.5305C20.3137 20.574 20.3573 20.6611 20.4444 20.6611H26.195C26.2128 20.6637 26.2309 20.6621 26.2479 20.6564C26.2649 20.6507 26.2804 20.6412 26.293 20.6285C26.3057 20.6158 26.3153 20.6003 26.3209 20.5833C26.3266 20.5663 26.3283 20.5482 26.3257 20.5305C26.4294 20.1613 26.488 19.781 26.5 19.3978C26.4931 18.3022 26.0548 17.2536 25.2802 16.4789C24.5055 15.7042 23.4568 15.266 22.3613 15.2591Z" fill="#FAAD3F"/>
<path d="M44.6574 21V10.794H48.7594C51.6574 10.794 53.3514 12.796 53.3514 15.904C53.3514 19.012 51.6574 21 48.7594 21H44.6574ZM48.5214 19.586C50.4954 19.586 51.6854 18.312 51.6854 15.876C51.6854 13.426 50.4674 12.194 48.5214 12.194H46.2674V19.586H48.5214ZM58.1381 21.126C55.8981 21.126 54.5821 19.628 54.5821 17.332C54.5821 14.966 55.9401 13.454 58.0821 13.454C60.4761 13.454 61.6801 15.148 61.5121 17.598H56.1501C56.1361 19.11 56.9061 19.936 58.1381 19.936C59.0901 19.936 59.7061 19.488 59.9301 18.76H61.4421C61.1761 20.23 59.8881 21.126 58.1381 21.126ZM56.1221 16.59H59.9721C59.9161 15.302 59.1741 14.644 58.0681 14.644C56.9761 14.644 56.2201 15.372 56.1221 16.59ZM62.8488 23.394V13.58H64.3048L64.3608 15.036H64.4448C64.7808 14.098 65.6628 13.454 66.8108 13.454C68.6028 13.454 69.7648 14.882 69.7648 17.29C69.7648 19.712 68.6028 21.126 66.8108 21.126C65.6628 21.126 64.7808 20.51 64.4448 19.586H64.3888V23.394H62.8488ZM66.2508 19.852C67.4688 19.852 68.1828 18.9 68.1828 17.29C68.1828 15.694 67.4828 14.742 66.2928 14.742C65.0888 14.742 64.3888 15.722 64.3888 16.94V17.654C64.3888 18.872 65.0748 19.852 66.2508 19.852ZM71.269 21V10.556H72.809V21H71.269ZM77.8643 21.126C75.7223 21.126 74.2803 19.656 74.2803 17.304C74.2803 15.008 75.6383 13.454 77.8643 13.454C79.9923 13.454 81.4203 14.924 81.4203 17.29C81.4203 19.572 80.0763 21.126 77.8643 21.126ZM77.8503 19.838C79.0683 19.838 79.8523 18.942 79.8523 17.29C79.8523 15.638 79.0823 14.728 77.8643 14.728C76.6323 14.728 75.8483 15.638 75.8483 17.304C75.8483 18.942 76.6323 19.838 77.8503 19.838ZM82.4854 23.45V22.176H83.2974C83.9414 22.176 84.2774 21.938 84.5014 21.336L84.8234 20.468L81.9674 13.58H83.6614L85.5514 18.816H85.6214L86.1254 17.262L87.3854 13.58H89.0234L85.9854 21.714C85.5234 22.988 84.7954 23.45 83.5634 23.45H82.4854ZM95.6675 21C94.5335 21 93.9875 20.482 93.9875 19.278V14.84H92.6155V13.58H93.9875V11.48L95.5135 11.284V13.58H97.0955V14.84H95.5135V18.998C95.5135 19.516 95.7515 19.712 96.2135 19.712H97.1095V21H95.6675ZM101.51 21.126C99.3681 21.126 97.9261 19.656 97.9261 17.304C97.9261 15.008 99.2841 13.454 101.51 13.454C103.638 13.454 105.066 14.924 105.066 17.29C105.066 19.572 103.722 21.126 101.51 21.126ZM101.496 19.838C102.714 19.838 103.498 18.942 103.498 17.29C103.498 15.638 102.728 14.728 101.51 14.728C100.278 14.728 99.4941 15.638 99.4941 17.304C99.4941 18.942 100.278 19.838 101.496 19.838ZM114.351 21.126C111.439 21.126 109.521 19.152 109.521 15.904C109.521 12.642 111.439 10.682 114.351 10.682C116.815 10.682 118.523 12.026 118.859 14.21H117.179C116.899 12.922 115.849 12.082 114.351 12.082C112.419 12.082 111.201 13.468 111.201 15.904C111.201 18.34 112.419 19.712 114.351 19.712C115.821 19.712 116.927 18.886 117.179 17.57H118.859C118.551 19.768 116.815 21.126 114.351 21.126ZM120.338 21V10.556H121.878V21H120.338ZM126.933 21.126C124.791 21.126 123.349 19.656 123.349 17.304C123.349 15.008 124.707 13.454 126.933 13.454C129.061 13.454 130.489 14.924 130.489 17.29C130.489 19.572 129.145 21.126 126.933 21.126ZM126.919 19.838C128.137 19.838 128.921 18.942 128.921 17.29C128.921 15.638 128.151 14.728 126.933 14.728C125.701 14.728 124.917 15.638 124.917 17.304C124.917 18.942 125.701 19.838 126.919 19.838ZM134.461 21.126C132.837 21.126 131.913 20.118 131.913 18.186V13.58H133.453V17.794C133.453 19.11 133.915 19.852 135.035 19.852C136.141 19.852 136.897 18.942 136.897 17.612V13.58H138.423V21H136.967L136.897 19.488H136.827C136.463 20.51 135.581 21.126 134.461 21.126ZM142.871 21.126C141.107 21.126 139.917 19.684 139.917 17.29C139.917 14.882 141.107 13.454 142.871 13.454C144.033 13.454 144.915 14.084 145.237 15.022H145.307L145.293 10.556H146.833V21H145.377L145.321 19.558H145.251C144.915 20.496 144.033 21.126 142.871 21.126ZM143.389 19.838C144.607 19.838 145.293 18.844 145.293 17.626V16.968C145.293 15.736 144.607 14.728 143.431 14.728C142.199 14.728 141.499 15.694 141.499 17.29C141.499 18.872 142.171 19.838 143.389 19.838ZM149.177 21V14.84H147.959V13.58H149.177V12.39C149.177 11.186 149.905 10.556 151.165 10.556H152.355V11.69H151.501C150.969 11.69 150.717 11.914 150.717 12.488V13.58H152.243V14.84H150.717V21H149.177ZM152.397 14.84V13.58H153.657V10.556H155.197V21H153.657V14.84H152.397ZM159.657 21.126C157.865 21.126 156.703 19.684 156.703 17.29C156.703 14.882 157.865 13.454 159.657 13.454C160.819 13.454 161.701 14.056 162.051 15.036H162.107L162.163 13.58H163.619V21H162.163L162.107 19.53H162.051C161.701 20.51 160.805 21.126 159.657 21.126ZM160.175 19.838C161.365 19.838 162.079 18.816 162.079 17.612V16.982C162.079 15.764 161.379 14.728 160.203 14.728C158.985 14.728 158.285 15.666 158.285 17.29C158.285 18.9 158.985 19.838 160.175 19.838ZM165.417 21V13.58H166.803L166.873 14.91H166.929C167.251 13.986 168.049 13.496 169.015 13.496H169.337V14.98C169.239 14.966 169.127 14.966 169.001 14.966C167.699 14.966 167.027 15.638 166.957 16.842V21H165.417ZM173.296 21.126C171.056 21.126 169.74 19.628 169.74 17.332C169.74 14.966 171.098 13.454 173.24 13.454C175.634 13.454 176.838 15.148 176.67 17.598H171.308C171.294 19.11 172.064 19.936 173.296 19.936C174.248 19.936 174.864 19.488 175.088 18.76H176.6C176.334 20.23 175.046 21.126 173.296 21.126ZM171.28 16.59H175.13C175.074 15.302 174.332 14.644 173.226 14.644C172.134 14.644 171.378 15.372 171.28 16.59Z" fill="black"/>
</g>
<rect x="0.5" y="0.5" width="188" height="31" rx="5.5" stroke="#F7A763"/>
</g>
<defs>
<filter id="filter0_i_91_78" x="0" y="-4" width="189" height="36" filterUnits="userSpaceOnUse" color-interpolation-filters="sRGB">
<feFlood flood-opacity="0" result="BackgroundImageFix"/>
<feBlend mode="normal" in="SourceGraphic" in2="BackgroundImageFix" result="shape"/>
<feColorMatrix in="SourceAlpha" type="matrix" values="0 0 0 0 0 0 0 0 0 0 0 0 0 0 0 0 0 0 127 0" result="hardAlpha"/>
<feOffset dy="-4"/>
<feGaussianBlur stdDeviation="2"/>
<feComposite in2="hardAlpha" operator="arithmetic" k2="-1" k3="1"/>
<feColorMatrix type="matrix" values="0 0 0 0 1 0 0 0 0 0.913189 0 0 0 0 0.841346 0 0 0 1 0"/>
<feBlend mode="normal" in2="shape" result="effect1_innerShadow_91_78"/>
</filter>
<linearGradient id="paint0_linear_91_78" x1="94.5" y1="0" x2="94.5" y2="32" gradientUnits="userSpaceOnUse">
<stop stop-color="white"/>
<stop offset="0.832725" stop-color="#FFFCF3"/>
<stop offset="1" stop-color="#FFEAD8"/>
</linearGradient>
<clipPath id="clip0_91_78">
<rect width="189" height="32" rx="6" fill="white"/>
</clipPath>
</defs>
</svg>
