<svg width="207" height="32" viewBox="0 0 207 32" fill="none" xmlns="http://www.w3.org/2000/svg">
<g clip-path="url(#clip0_94_387)">
<rect width="207" height="32" rx="6" fill="#0069FF"/>
<mask id="path-3-inside-1_94_387" fill="white">
<path d="M0 0H32V32H0V0Z"/>
</mask>
<path d="M32 0H31V32H32H33V0H32Z" fill="#4390FF" mask="url(#path-3-inside-1_94_387)"/>
<path fill-rule="evenodd" clip-rule="evenodd" d="M16.0078 24V20.9009C19.2997 20.9009 21.8318 17.6438 20.5815 14.197C20.1068 12.9163 19.0939 11.8885 17.812 11.4301C14.362 10.1809 11.1018 12.7108 11.1018 15.9995H8C8 10.766 13.0642 6.68666 18.5558 8.3943C20.9614 9.13742 22.8605 11.0505 23.6043 13.4381C25.3134 18.9404 21.2462 24 16.0078 24Z" fill="white"/>
<path fill-rule="evenodd" clip-rule="evenodd" d="M15.6521 20.5217H12.8695V17.7391H15.6521V20.5217Z" fill="white"/>
<path fill-rule="evenodd" clip-rule="evenodd" d="M12.8696 23.3043H10.7826V21.2173H12.8696V23.3043Z" fill="white"/>
<path fill-rule="evenodd" clip-rule="evenodd" d="M10.7826 21.2174H8.69562V19.1305H10.7826V21.2174Z" fill="white"/>
<path d="M44.6574 21V10.794H48.7594C51.6574 10.794 53.3514 12.796 53.3514 15.904C53.3514 19.012 51.6574 21 48.7594 21H44.6574ZM48.5214 19.586C50.4954 19.586 51.6854 18.312 51.6854 15.876C51.6854 13.426 50.4674 12.194 48.5214 12.194H46.2674V19.586H48.5214ZM58.1381 21.126C55.8981 21.126 54.5821 19.628 54.5821 17.332C54.5821 14.966 55.9401 13.454 58.0821 13.454C60.4761 13.454 61.6801 15.148 61.5121 17.598H56.1501C56.1361 19.11 56.9061 19.936 58.1381 19.936C59.0901 19.936 59.7061 19.488 59.9301 18.76H61.4421C61.1761 20.23 59.8881 21.126 58.1381 21.126ZM56.1221 16.59H59.9721C59.9161 15.302 59.1741 14.644 58.0681 14.644C56.9761 14.644 56.2201 15.372 56.1221 16.59ZM62.8488 23.394V13.58H64.3048L64.3608 15.036H64.4448C64.7808 14.098 65.6628 13.454 66.8108 13.454C68.6028 13.454 69.7648 14.882 69.7648 17.29C69.7648 19.712 68.6028 21.126 66.8108 21.126C65.6628 21.126 64.7808 20.51 64.4448 19.586H64.3888V23.394H62.8488ZM66.2508 19.852C67.4688 19.852 68.1828 18.9 68.1828 17.29C68.1828 15.694 67.4828 14.742 66.2928 14.742C65.0888 14.742 64.3888 15.722 64.3888 16.94V17.654C64.3888 18.872 65.0748 19.852 66.2508 19.852ZM71.269 21V10.556H72.809V21H71.269ZM77.8643 21.126C75.7223 21.126 74.2803 19.656 74.2803 17.304C74.2803 15.008 75.6383 13.454 77.8643 13.454C79.9923 13.454 81.4203 14.924 81.4203 17.29C81.4203 19.572 80.0763 21.126 77.8643 21.126ZM77.8503 19.838C79.0683 19.838 79.8523 18.942 79.8523 17.29C79.8523 15.638 79.0823 14.728 77.8643 14.728C76.6323 14.728 75.8483 15.638 75.8483 17.304C75.8483 18.942 76.6323 19.838 77.8503 19.838ZM82.4854 23.45V22.176H83.2974C83.9414 22.176 84.2774 21.938 84.5014 21.336L84.8234 20.468L81.9674 13.58H83.6614L85.5514 18.816H85.6214L86.1254 17.262L87.3854 13.58H89.0234L85.9854 21.714C85.5234 22.988 84.7954 23.45 83.5634 23.45H82.4854ZM95.6675 21C94.5335 21 93.9875 20.482 93.9875 19.278V14.84H92.6155V13.58H93.9875V11.48L95.5135 11.284V13.58H97.0955V14.84H95.5135V18.998C95.5135 19.516 95.7515 19.712 96.2135 19.712H97.1095V21H95.6675ZM101.51 21.126C99.3681 21.126 97.9261 19.656 97.9261 17.304C97.9261 15.008 99.2841 13.454 101.51 13.454C103.638 13.454 105.066 14.924 105.066 17.29C105.066 19.572 103.722 21.126 101.51 21.126ZM101.496 19.838C102.714 19.838 103.498 18.942 103.498 17.29C103.498 15.638 102.728 14.728 101.51 14.728C100.278 14.728 99.4941 15.638 99.4941 17.304C99.4941 18.942 100.278 19.838 101.496 19.838ZM109.829 21V10.794H113.931C116.829 10.794 118.523 12.796 118.523 15.904C118.523 19.012 116.829 21 113.931 21H109.829ZM113.693 19.586C115.667 19.586 116.857 18.312 116.857 15.876C116.857 13.426 115.639 12.194 113.693 12.194H111.439V19.586H113.693ZM120.133 21V13.58H121.673V21H120.133ZM120.903 12.418C120.357 12.418 119.951 12.026 119.951 11.494C119.951 10.962 120.357 10.57 120.903 10.57C121.463 10.57 121.869 10.962 121.869 11.494C121.869 12.026 121.463 12.418 120.903 12.418ZM126.727 23.604C124.683 23.604 123.465 22.834 123.283 21.406H124.907C125.075 22.106 125.691 22.442 126.769 22.442C128.029 22.442 128.547 21.882 128.547 20.636L128.561 19.348H128.491C128.155 20.244 127.259 20.846 126.097 20.846C124.333 20.846 123.157 19.474 123.157 17.15C123.157 14.812 124.333 13.44 126.097 13.44C127.245 13.44 128.155 14.028 128.505 14.952H128.575L128.617 13.58H130.087V20.426C130.087 22.75 128.841 23.604 126.727 23.604ZM126.615 19.572C127.805 19.572 128.547 18.578 128.547 17.43V16.828C128.547 15.708 127.833 14.7 126.629 14.7C125.467 14.7 124.739 15.582 124.739 17.15C124.739 18.704 125.453 19.572 126.615 19.572ZM131.86 21V13.58H133.4V21H131.86ZM132.63 12.418C132.084 12.418 131.678 12.026 131.678 11.494C131.678 10.962 132.084 10.57 132.63 10.57C133.19 10.57 133.596 10.962 133.596 11.494C133.596 12.026 133.19 12.418 132.63 12.418ZM137.588 21C136.454 21 135.908 20.482 135.908 19.278V14.84H134.536V13.58H135.908V11.48L137.434 11.284V13.58H139.016V14.84H137.434V18.998C137.434 19.516 137.672 19.712 138.134 19.712H139.03V21H137.588ZM142.897 21.126C141.105 21.126 139.943 19.684 139.943 17.29C139.943 14.882 141.105 13.454 142.897 13.454C144.059 13.454 144.941 14.056 145.291 15.036H145.347L145.403 13.58H146.859V21H145.403L145.347 19.53H145.291C144.941 20.51 144.045 21.126 142.897 21.126ZM143.415 19.838C144.605 19.838 145.319 18.816 145.319 17.612V16.982C145.319 15.764 144.619 14.728 143.443 14.728C142.225 14.728 141.525 15.666 141.525 17.29C141.525 18.9 142.225 19.838 143.415 19.838ZM148.671 21V10.556H150.211V21H148.671ZM156.708 21.126C153.768 21.126 151.892 19.124 151.892 15.904C151.892 12.656 153.768 10.682 156.708 10.682C159.676 10.682 161.552 12.67 161.552 15.904C161.552 19.138 159.648 21.126 156.708 21.126ZM156.708 19.698C158.682 19.698 159.872 18.27 159.872 15.904C159.872 13.51 158.682 12.096 156.708 12.096C154.748 12.096 153.572 13.51 153.572 15.904C153.572 18.27 154.762 19.698 156.708 19.698ZM166.462 21.126C164.306 21.126 162.906 19.6 162.906 17.29C162.906 14.994 164.32 13.454 166.518 13.454C168.338 13.454 169.612 14.49 169.808 16.128H168.254C168.044 15.218 167.372 14.742 166.476 14.742C165.174 14.742 164.474 15.764 164.474 17.304C164.474 18.942 165.258 19.838 166.462 19.838C167.456 19.838 168.114 19.278 168.282 18.382H169.836C169.626 20.076 168.324 21.126 166.462 21.126ZM174.265 21.126C172.025 21.126 170.709 19.628 170.709 17.332C170.709 14.966 172.067 13.454 174.209 13.454C176.603 13.454 177.807 15.148 177.639 17.598H172.277C172.263 19.11 173.033 19.936 174.265 19.936C175.217 19.936 175.833 19.488 176.057 18.76H177.569C177.303 20.23 176.015 21.126 174.265 21.126ZM172.249 16.59H176.099C176.043 15.302 175.301 14.644 174.195 14.644C173.103 14.644 172.347 15.372 172.249 16.59ZM181.703 21.126C179.911 21.126 178.749 19.684 178.749 17.29C178.749 14.882 179.911 13.454 181.703 13.454C182.865 13.454 183.747 14.056 184.097 15.036H184.153L184.209 13.58H185.665V21H184.209L184.153 19.53H184.097C183.747 20.51 182.851 21.126 181.703 21.126ZM182.221 19.838C183.411 19.838 184.125 18.816 184.125 17.612V16.982C184.125 15.764 183.425 14.728 182.249 14.728C181.031 14.728 180.331 15.666 180.331 17.29C180.331 18.9 181.031 19.838 182.221 19.838ZM187.477 21V13.58H188.947L189.003 15.078H189.073C189.493 14.014 190.417 13.454 191.467 13.454C192.951 13.454 193.987 14.364 193.987 16.562V21H192.461V16.898C192.461 15.428 191.957 14.742 190.893 14.742C189.773 14.742 189.017 15.652 189.017 16.926V21H187.477Z" fill="white"/>
</g>
<rect x="0.5" y="0.5" width="206" height="31" rx="5.5" stroke="#4390FF"/>
<defs>
<clipPath id="clip0_94_387">
<rect width="207" height="32" rx="6" fill="white"/>
</clipPath>
</defs>
</svg>
