<svg width="189" height="32" viewBox="0 0 189 32" fill="none" xmlns="http://www.w3.org/2000/svg">
<g filter="url(#filter0_i_94_112)">
<g clip-path="url(#clip0_94_112)">
<rect width="189" height="32" rx="6" fill="url(#paint0_linear_94_112)"/>
<mask id="path-3-inside-1_94_112" fill="white">
<path d="M0 0H32V32H0V0Z"/>
</mask>
<path d="M32 0H31V32H32H33V0H32Z" fill="#F7A763" mask="url(#path-3-inside-1_94_112)"/>
<path d="M12.1134 9.16609L13.9985 12.4827L12.2673 15.5217C12.099 15.8165 12.099 16.1761 12.2673 16.4709L13.9985 19.5174L12.1134 22.834C11.7588 22.6625 11.4642 22.3922 11.267 22.0574L8.26637 16.9736C7.91105 16.3703 7.91105 15.626 8.26637 15.0226L11.2671 9.93887C11.4648 9.60545 11.7594 9.33646 12.1135 9.16597L12.1134 9.16609Z" fill="url(#paint1_linear_94_112)"/>
<path d="M12.2673 15.5254C12.1004 15.8192 12.1004 16.1771 12.2673 16.4708L13.9985 19.5173L12.1134 22.834C11.7588 22.6625 11.4642 22.3922 11.267 22.0574L8.26638 16.9736C8.02787 16.5721 9.36279 16.0919 12.2674 15.5291V15.5254L12.2673 15.5254Z" fill="url(#paint2_linear_94_112)"/>
<path d="M12.3057 9.49998L13.9985 12.4827L13.7177 12.9592L12.225 10.4942C11.7941 9.80762 11.1362 10.1641 10.313 11.5523L10.4361 11.3459L11.267 9.93892C11.4627 9.60659 11.7544 9.33772 12.1057 9.16602L12.3019 9.49998H12.3057Z" fill="url(#paint3_linear_94_112)"/>
<path d="M20.7309 9.93892L23.7316 15.0227C24.0894 15.623 24.0894 16.3734 23.7316 16.9737L20.7309 22.0574C20.3742 22.6599 19.713 23.0324 18.9997 23.0329H15.999L19.7306 16.4709C19.8975 16.1771 19.8975 15.8192 19.7306 15.5254L15.999 8.96347H18.9997C19.713 8.9639 20.3742 9.33645 20.7309 9.93892Z" fill="url(#paint4_linear_94_112)"/>
<path d="M18.8458 23.0104L15.8835 23.0366L19.4691 16.4409C19.6317 16.1433 19.6317 15.7854 19.4691 15.4879L15.8835 8.96347H16.5606L20.3231 15.4579C20.5043 15.7697 20.5028 16.153 20.3192 16.4634C19.5095 17.8359 18.7054 19.2116 17.9071 20.5905C17.1762 21.8435 17.4916 22.6502 18.8458 23.0103L18.8458 23.0104Z" fill="url(#paint5_linear_94_112)"/>
<path d="M12.9982 23.0329C12.6905 23.0329 12.3827 22.9616 12.1134 22.834L15.8143 16.3246C15.9296 16.1217 15.9296 15.8746 15.8143 15.6717L12.1134 9.16608C12.3885 9.03326 12.6913 8.9639 12.9982 8.96347H15.999L19.7306 15.5254C19.8975 15.8192 19.8975 16.1771 19.7306 16.4709L15.999 23.033H12.9982V23.0329Z" fill="url(#paint6_linear_94_112)"/>
<path d="M19.4691 15.6717L15.6527 8.96347H15.999L19.7307 15.5254C19.8975 15.8192 19.8975 16.1771 19.7307 16.4709L15.999 23.033H15.6527L19.4691 16.3246C19.5844 16.1218 19.5844 15.8746 19.4691 15.6717Z" fill="url(#paint7_linear_94_112)"/>
<path d="M15.8143 15.6717L12.1134 9.16607C12.2288 9.10603 12.3673 9.06099 12.4981 9.02344C13.3137 10.4529 14.5179 12.6215 16.1144 15.5254C16.2813 15.8192 16.2813 16.1771 16.1144 16.4708L12.4404 22.9579C12.3096 22.9204 12.2403 22.8941 12.1173 22.8378L15.8105 16.3284C15.9258 16.1255 15.9258 15.8784 15.8105 15.6756L15.8143 15.6717Z" fill="url(#paint8_linear_94_112)"/>
<path d="M44.6574 21V10.794H48.7594C51.6574 10.794 53.3514 12.796 53.3514 15.904C53.3514 19.012 51.6574 21 48.7594 21H44.6574ZM48.5214 19.586C50.4954 19.586 51.6854 18.312 51.6854 15.876C51.6854 13.426 50.4674 12.194 48.5214 12.194H46.2674V19.586H48.5214ZM58.1381 21.126C55.8981 21.126 54.5821 19.628 54.5821 17.332C54.5821 14.966 55.9401 13.454 58.0821 13.454C60.4761 13.454 61.6801 15.148 61.5121 17.598H56.1501C56.1361 19.11 56.9061 19.936 58.1381 19.936C59.0901 19.936 59.7061 19.488 59.9301 18.76H61.4421C61.1761 20.23 59.8881 21.126 58.1381 21.126ZM56.1221 16.59H59.9721C59.9161 15.302 59.1741 14.644 58.0681 14.644C56.9761 14.644 56.2201 15.372 56.1221 16.59ZM62.8488 23.394V13.58H64.3048L64.3608 15.036H64.4448C64.7808 14.098 65.6628 13.454 66.8108 13.454C68.6028 13.454 69.7648 14.882 69.7648 17.29C69.7648 19.712 68.6028 21.126 66.8108 21.126C65.6628 21.126 64.7808 20.51 64.4448 19.586H64.3888V23.394H62.8488ZM66.2508 19.852C67.4688 19.852 68.1828 18.9 68.1828 17.29C68.1828 15.694 67.4828 14.742 66.2928 14.742C65.0888 14.742 64.3888 15.722 64.3888 16.94V17.654C64.3888 18.872 65.0748 19.852 66.2508 19.852ZM71.269 21V10.556H72.809V21H71.269ZM77.8643 21.126C75.7223 21.126 74.2803 19.656 74.2803 17.304C74.2803 15.008 75.6383 13.454 77.8643 13.454C79.9923 13.454 81.4203 14.924 81.4203 17.29C81.4203 19.572 80.0763 21.126 77.8643 21.126ZM77.8503 19.838C79.0683 19.838 79.8523 18.942 79.8523 17.29C79.8523 15.638 79.0823 14.728 77.8643 14.728C76.6323 14.728 75.8483 15.638 75.8483 17.304C75.8483 18.942 76.6323 19.838 77.8503 19.838ZM82.4854 23.45V22.176H83.2974C83.9414 22.176 84.2774 21.938 84.5014 21.336L84.8234 20.468L81.9674 13.58H83.6614L85.5514 18.816H85.6214L86.1254 17.262L87.3854 13.58H89.0234L85.9854 21.714C85.5234 22.988 84.7954 23.45 83.5634 23.45H82.4854ZM95.6675 21C94.5335 21 93.9875 20.482 93.9875 19.278V14.84H92.6155V13.58H93.9875V11.48L95.5135 11.284V13.58H97.0955V14.84H95.5135V18.998C95.5135 19.516 95.7515 19.712 96.2135 19.712H97.1095V21H95.6675ZM101.51 21.126C99.3681 21.126 97.9261 19.656 97.9261 17.304C97.9261 15.008 99.2841 13.454 101.51 13.454C103.638 13.454 105.066 14.924 105.066 17.29C105.066 19.572 103.722 21.126 101.51 21.126ZM101.496 19.838C102.714 19.838 103.498 18.942 103.498 17.29C103.498 15.638 102.728 14.728 101.51 14.728C100.278 14.728 99.4941 15.638 99.4941 17.304C99.4941 18.942 100.278 19.838 101.496 19.838ZM114.351 21.126C111.439 21.126 109.521 19.152 109.521 15.904C109.521 12.642 111.439 10.682 114.351 10.682C116.815 10.682 118.523 12.026 118.859 14.21H117.179C116.899 12.922 115.849 12.082 114.351 12.082C112.419 12.082 111.201 13.468 111.201 15.904C111.201 18.34 112.419 19.712 114.351 19.712C115.821 19.712 116.927 18.886 117.179 17.57H118.859C118.551 19.768 116.815 21.126 114.351 21.126ZM120.338 21V10.556H121.878V21H120.338ZM126.933 21.126C124.791 21.126 123.349 19.656 123.349 17.304C123.349 15.008 124.707 13.454 126.933 13.454C129.061 13.454 130.489 14.924 130.489 17.29C130.489 19.572 129.145 21.126 126.933 21.126ZM126.919 19.838C128.137 19.838 128.921 18.942 128.921 17.29C128.921 15.638 128.151 14.728 126.933 14.728C125.701 14.728 124.917 15.638 124.917 17.304C124.917 18.942 125.701 19.838 126.919 19.838ZM134.461 21.126C132.837 21.126 131.913 20.118 131.913 18.186V13.58H133.453V17.794C133.453 19.11 133.915 19.852 135.035 19.852C136.141 19.852 136.897 18.942 136.897 17.612V13.58H138.423V21H136.967L136.897 19.488H136.827C136.463 20.51 135.581 21.126 134.461 21.126ZM142.871 21.126C141.107 21.126 139.917 19.684 139.917 17.29C139.917 14.882 141.107 13.454 142.871 13.454C144.033 13.454 144.915 14.084 145.237 15.022H145.307L145.293 10.556H146.833V21H145.377L145.321 19.558H145.251C144.915 20.496 144.033 21.126 142.871 21.126ZM143.389 19.838C144.607 19.838 145.293 18.844 145.293 17.626V16.968C145.293 15.736 144.607 14.728 143.431 14.728C142.199 14.728 141.499 15.694 141.499 17.29C141.499 18.872 142.171 19.838 143.389 19.838ZM149.177 21V14.84H147.959V13.58H149.177V12.39C149.177 11.186 149.905 10.556 151.165 10.556H152.355V11.69H151.501C150.969 11.69 150.717 11.914 150.717 12.488V13.58H152.243V14.84H150.717V21H149.177ZM152.397 14.84V13.58H153.657V10.556H155.197V21H153.657V14.84H152.397ZM159.657 21.126C157.865 21.126 156.703 19.684 156.703 17.29C156.703 14.882 157.865 13.454 159.657 13.454C160.819 13.454 161.701 14.056 162.051 15.036H162.107L162.163 13.58H163.619V21H162.163L162.107 19.53H162.051C161.701 20.51 160.805 21.126 159.657 21.126ZM160.175 19.838C161.365 19.838 162.079 18.816 162.079 17.612V16.982C162.079 15.764 161.379 14.728 160.203 14.728C158.985 14.728 158.285 15.666 158.285 17.29C158.285 18.9 158.985 19.838 160.175 19.838ZM165.417 21V13.58H166.803L166.873 14.91H166.929C167.251 13.986 168.049 13.496 169.015 13.496H169.337V14.98C169.239 14.966 169.127 14.966 169.001 14.966C167.699 14.966 167.027 15.638 166.957 16.842V21H165.417ZM173.296 21.126C171.056 21.126 169.74 19.628 169.74 17.332C169.74 14.966 171.098 13.454 173.24 13.454C175.634 13.454 176.838 15.148 176.67 17.598H171.308C171.294 19.11 172.064 19.936 173.296 19.936C174.248 19.936 174.864 19.488 175.088 18.76H176.6C176.334 20.23 175.046 21.126 173.296 21.126ZM171.28 16.59H175.13C175.074 15.302 174.332 14.644 173.226 14.644C172.134 14.644 171.378 15.372 171.28 16.59Z" fill="black"/>
</g>
<rect x="0.5" y="0.5" width="188" height="31" rx="5.5" stroke="#F7A763"/>
</g>
<defs>
<filter id="filter0_i_94_112" x="0" y="-4" width="189" height="36" filterUnits="userSpaceOnUse" color-interpolation-filters="sRGB">
<feFlood flood-opacity="0" result="BackgroundImageFix"/>
<feBlend mode="normal" in="SourceGraphic" in2="BackgroundImageFix" result="shape"/>
<feColorMatrix in="SourceAlpha" type="matrix" values="0 0 0 0 0 0 0 0 0 0 0 0 0 0 0 0 0 0 127 0" result="hardAlpha"/>
<feOffset dy="-4"/>
<feGaussianBlur stdDeviation="2"/>
<feComposite in2="hardAlpha" operator="arithmetic" k2="-1" k3="1"/>
<feColorMatrix type="matrix" values="0 0 0 0 1 0 0 0 0 0.913189 0 0 0 0 0.841346 0 0 0 1 0"/>
<feBlend mode="normal" in2="shape" result="effect1_innerShadow_94_112"/>
</filter>
<linearGradient id="paint0_linear_94_112" x1="94.5" y1="0" x2="94.5" y2="32" gradientUnits="userSpaceOnUse">
<stop stop-color="white"/>
<stop offset="0.832725" stop-color="#FFFCF3"/>
<stop offset="1" stop-color="#FFEAD8"/>
</linearGradient>
<linearGradient id="paint1_linear_94_112" x1="10.9992" y1="22.834" x2="9.61194" y2="10.3472" gradientUnits="userSpaceOnUse">
<stop stop-color="#EB6F07"/>
<stop offset="1" stop-color="#FAB743"/>
</linearGradient>
<linearGradient id="paint2_linear_94_112" x1="12.9042" y1="21.6427" x2="10.6586" y2="17.6328" gradientUnits="userSpaceOnUse">
<stop stop-color="#D96504" stop-opacity="0.7"/>
<stop offset="1" stop-color="#D96504" stop-opacity="0"/>
</linearGradient>
<linearGradient id="paint3_linear_94_112" x1="11.8609" y1="9.49602" x2="13.3504" y2="12.2286" gradientUnits="userSpaceOnUse">
<stop stop-color="#EB6F07" stop-opacity="0.5"/>
<stop offset="1" stop-color="#EB720A" stop-opacity="0"/>
</linearGradient>
<linearGradient id="paint4_linear_94_112" x1="19.9995" y1="23.0329" x2="18.1484" y2="10.1741" gradientUnits="userSpaceOnUse">
<stop stop-color="#EE6F05"/>
<stop offset="1" stop-color="#FAB743"/>
</linearGradient>
<linearGradient id="paint5_linear_94_112" x1="14.3647" y1="23.0366" x2="19.835" y2="8.86957" gradientUnits="userSpaceOnUse">
<stop stop-color="#D96504" stop-opacity="0.8"/>
<stop offset="0.5" stop-color="#D96504" stop-opacity="0.2"/>
<stop offset="1" stop-color="#D96504" stop-opacity="0"/>
</linearGradient>
<linearGradient id="paint6_linear_94_112" x1="15.9846" y1="23.033" x2="14.1935" y2="10.1749" gradientUnits="userSpaceOnUse">
<stop stop-color="#FFA95F"/>
<stop offset="1" stop-color="#FFEBC8"/>
</linearGradient>
<linearGradient id="paint7_linear_94_112" x1="15.9932" y1="9.11823" x2="19.5664" y2="15.9043" gradientUnits="userSpaceOnUse">
<stop stop-color="white" stop-opacity="0.3"/>
<stop offset="1" stop-color="white" stop-opacity="0.06"/>
</linearGradient>
<linearGradient id="paint8_linear_94_112" x1="11.5481" y1="23.5431" x2="16.0637" y2="15.364" gradientUnits="userSpaceOnUse">
<stop stop-color="white" stop-opacity="0.3"/>
<stop offset="1" stop-color="white" stop-opacity="0.06"/>
</linearGradient>
<clipPath id="clip0_94_112">
<rect width="189" height="32" rx="6" fill="white"/>
</clipPath>
</defs>
</svg>
