<svg width="162" height="32" viewBox="0 0 162 32" fill="none" xmlns="http://www.w3.org/2000/svg">
<g clip-path="url(#clip0_91_85)">
<rect width="162" height="32" rx="6" fill="#2E51ED"/>
<mask id="path-3-inside-1_91_85" fill="white">
<path d="M0 0H32V32H0V0Z"/>
</mask>
<path d="M32 0H31V32H32H33V0H32Z" fill="#6985FF" mask="url(#path-3-inside-1_91_85)"/>
<path d="M11.2158 21.6688H11.405L12.8456 20.2835V19.3236L12.7126 19.1951H11.7142L10.2735 20.5812V20.7627L11.2158 21.6688Z" fill="white"/>
<path d="M10.2735 11.2365V11.418L11.7142 12.8033H12.7126L12.8456 12.6756V11.7157L11.405 10.3297H11.2158L10.2735 11.2365Z" fill="white"/>
<path d="M17.1999 18.7475H18.5706L18.6852 18.6375V15.3408C18.6852 14.1871 17.7137 13.2525 16.5138 13.2525H13.4279L13.3125 13.3633V18.6359L13.4279 18.7459H14.7986L14.9132 18.6359V14.6416L14.9785 14.577C15.4116 14.5609 15.8177 14.5524 16.1715 14.5609C16.8607 14.5755 17.0845 15.0016 17.0845 15.5508V18.6375L17.1999 18.7475Z" fill="white"/>
<path d="M6.11538 16.7715H11.5996V16.7707L11.7149 16.6607V15.3393L11.5996 15.2293H6.11461L6 15.3393V16.6607L6.11538 16.7715Z" fill="white"/>
<path d="M20.4004 16.7715H25.8854V16.7707L26 16.6607V15.3393L25.8854 15.2293H20.4004L20.2851 15.3393V16.6607L20.4004 16.7715Z" fill="white"/>
<path d="M15.2093 7.6491V11.6049L15.3239 11.7157H16.6984L16.8122 11.6049V7.6491L16.6984 7.53911H15.3239L15.2093 7.6491Z" fill="white"/>
<path d="M15.2093 20.395V24.3509L15.3239 24.4609H16.6984L16.8122 24.3509V20.395L16.6984 20.2851H15.3239L15.2093 20.395Z" fill="white"/>
<path d="M44.6574 21V10.794H48.7594C51.6574 10.794 53.3514 12.796 53.3514 15.904C53.3514 19.012 51.6574 21 48.7594 21H44.6574ZM48.5214 19.586C50.4954 19.586 51.6854 18.312 51.6854 15.876C51.6854 13.426 50.4674 12.194 48.5214 12.194H46.2674V19.586H48.5214ZM58.1381 21.126C55.8981 21.126 54.5821 19.628 54.5821 17.332C54.5821 14.966 55.9401 13.454 58.0821 13.454C60.4761 13.454 61.6801 15.148 61.5121 17.598H56.1501C56.1361 19.11 56.9061 19.936 58.1381 19.936C59.0901 19.936 59.7061 19.488 59.9301 18.76H61.4421C61.1761 20.23 59.8881 21.126 58.1381 21.126ZM56.1221 16.59H59.9721C59.9161 15.302 59.1741 14.644 58.0681 14.644C56.9761 14.644 56.2201 15.372 56.1221 16.59ZM62.8488 23.394V13.58H64.3048L64.3608 15.036H64.4448C64.7808 14.098 65.6628 13.454 66.8108 13.454C68.6028 13.454 69.7648 14.882 69.7648 17.29C69.7648 19.712 68.6028 21.126 66.8108 21.126C65.6628 21.126 64.7808 20.51 64.4448 19.586H64.3888V23.394H62.8488ZM66.2508 19.852C67.4688 19.852 68.1828 18.9 68.1828 17.29C68.1828 15.694 67.4828 14.742 66.2928 14.742C65.0888 14.742 64.3888 15.722 64.3888 16.94V17.654C64.3888 18.872 65.0748 19.852 66.2508 19.852ZM71.269 21V10.556H72.809V21H71.269ZM77.8643 21.126C75.7223 21.126 74.2803 19.656 74.2803 17.304C74.2803 15.008 75.6383 13.454 77.8643 13.454C79.9923 13.454 81.4203 14.924 81.4203 17.29C81.4203 19.572 80.0763 21.126 77.8643 21.126ZM77.8503 19.838C79.0683 19.838 79.8523 18.942 79.8523 17.29C79.8523 15.638 79.0823 14.728 77.8643 14.728C76.6323 14.728 75.8483 15.638 75.8483 17.304C75.8483 18.942 76.6323 19.838 77.8503 19.838ZM82.4854 23.45V22.176H83.2974C83.9414 22.176 84.2774 21.938 84.5014 21.336L84.8234 20.468L81.9674 13.58H83.6614L85.5514 18.816H85.6214L86.1254 17.262L87.3854 13.58H89.0234L85.9854 21.714C85.5234 22.988 84.7954 23.45 83.5634 23.45H82.4854ZM95.6675 21C94.5335 21 93.9875 20.482 93.9875 19.278V14.84H92.6155V13.58H93.9875V11.48L95.5135 11.284V13.58H97.0955V14.84H95.5135V18.998C95.5135 19.516 95.7515 19.712 96.2135 19.712H97.1095V21H95.6675ZM101.51 21.126C99.3681 21.126 97.9261 19.656 97.9261 17.304C97.9261 15.008 99.2841 13.454 101.51 13.454C103.638 13.454 105.066 14.924 105.066 17.29C105.066 19.572 103.722 21.126 101.51 21.126ZM101.496 19.838C102.714 19.838 103.498 18.942 103.498 17.29C103.498 15.638 102.728 14.728 101.51 14.728C100.278 14.728 99.4941 15.638 99.4941 17.304C99.4941 18.942 100.278 19.838 101.496 19.838ZM109.843 21V10.794H111.775L116.731 18.62H116.801L116.745 15.386V10.794H118.327V21H116.423L111.509 13.244H111.425L111.481 16.268V21H109.843ZM123.391 21.126C121.151 21.126 119.835 19.628 119.835 17.332C119.835 14.966 121.193 13.454 123.335 13.454C125.729 13.454 126.933 15.148 126.765 17.598H121.403C121.389 19.11 122.159 19.936 123.391 19.936C124.343 19.936 124.959 19.488 125.183 18.76H126.695C126.429 20.23 125.141 21.126 123.391 21.126ZM121.375 16.59H125.225C125.169 15.302 124.427 14.644 123.321 14.644C122.229 14.644 121.473 15.372 121.375 16.59ZM130.386 21C129.252 21 128.706 20.482 128.706 19.278V14.84H127.334V13.58H128.706V11.48L130.232 11.284V13.58H131.814V14.84H130.232V18.998C130.232 19.516 130.47 19.712 130.932 19.712H131.828V21H130.386ZM133.131 21V10.556H134.671V21H133.131ZM136.493 21V13.58H138.033V21H136.493ZM137.263 12.418C136.717 12.418 136.311 12.026 136.311 11.494C136.311 10.962 136.717 10.57 137.263 10.57C137.823 10.57 138.229 10.962 138.229 11.494C138.229 12.026 137.823 12.418 137.263 12.418ZM140.359 21V14.84H139.141V13.58H140.359V12.39C140.359 11.186 141.087 10.556 142.347 10.556H143.537V11.69H142.683C142.151 11.69 141.899 11.914 141.899 12.488V13.58H144.573L146.463 18.816H146.533L147.037 17.262L148.297 13.58H149.935L146.897 21.714C146.435 22.988 145.707 23.45 144.475 23.45H143.397V22.176H144.209C144.853 22.176 145.189 21.938 145.413 21.336L145.735 20.468L143.397 14.84H141.899V21H140.359Z" fill="white"/>
</g>
<rect x="0.5" y="0.5" width="161" height="31" rx="5.5" stroke="#6985FF"/>
<defs>
<clipPath id="clip0_91_85">
<rect width="162" height="32" rx="6" fill="white"/>
</clipPath>
</defs>
</svg>
