<svg width="189" height="32" viewBox="0 0 189 32" fill="none" xmlns="http://www.w3.org/2000/svg">
<g clip-path="url(#clip0_94_295)">
<rect width="189" height="32" rx="6" fill="#0F62FE"/>
<mask id="path-3-inside-1_94_295" fill="white">
<path d="M0 0H32V32H0V0Z"/>
</mask>
<path d="M32 0H31V32H32H33V0H32Z" fill="#5A93FF" mask="url(#path-3-inside-1_94_295)"/>
<g clip-path="url(#clip1_94_295)">
<path d="M20.2902 14.825C19.7933 13.8938 19.0071 13.1495 18.0502 12.7041C17.0933 12.2588 16.0176 12.1367 14.9852 12.3561C13.9528 12.5756 13.0197 13.1247 12.3267 13.9207C11.6336 14.7168 11.2182 15.7166 11.143 16.7693C10.2844 16.8617 9.49395 17.2796 8.93415 17.937C8.37436 18.5945 8.08785 19.4415 8.13359 20.3038C8.17932 21.166 8.55382 21.978 9.18002 22.5725C9.80623 23.1671 10.6365 23.499 11.5 23.5H19.5C20.5916 23.5007 21.644 23.093 22.4504 22.3572C23.2568 21.6214 23.7589 20.6106 23.8579 19.5235C23.9569 18.4364 23.6458 17.3515 22.9856 16.4821C22.3255 15.6127 21.364 15.0216 20.2902 14.825ZM19.5 22.75H11.5C10.8348 22.7515 10.1939 22.4998 9.7075 22.046C9.22112 21.5922 8.92568 20.9703 8.88117 20.3065C8.83667 19.6428 9.04644 18.987 9.46788 18.4723C9.88933 17.9576 10.4909 17.6226 11.1503 17.5353C11.2032 18.197 11.391 18.8409 11.7021 19.4272C11.7247 19.4719 11.7559 19.5117 11.794 19.5441C11.8322 19.5766 11.8764 19.601 11.9241 19.6161C11.9719 19.6312 12.0221 19.6365 12.072 19.6319C12.1218 19.6272 12.1702 19.6126 12.2143 19.5889C12.2584 19.5653 12.2974 19.533 12.3288 19.494C12.3602 19.4551 12.3836 19.4102 12.3974 19.3621C12.4112 19.314 12.4153 19.2636 12.4094 19.2139C12.4034 19.1642 12.3876 19.1162 12.3628 19.0727C11.8671 18.1461 11.7438 17.0653 12.018 16.0509C12.2922 15.0364 12.9432 14.1648 13.8381 13.6141C14.733 13.0633 15.8044 12.8749 16.8336 13.0872C17.8628 13.2995 18.7721 13.8966 19.376 14.7566C18.7767 14.7732 18.1872 14.9126 17.6441 15.1663C17.101 15.4201 16.6157 15.7827 16.2185 16.2316C16.1847 16.2684 16.1585 16.3115 16.1416 16.3584C16.1246 16.4054 16.1172 16.4553 16.1198 16.5051C16.1224 16.555 16.1349 16.6038 16.1566 16.6488C16.1783 16.6937 16.2087 16.7339 16.2462 16.7669C16.2836 16.8 16.3273 16.8252 16.3746 16.8411C16.4219 16.8571 16.4719 16.8634 16.5217 16.8597C16.5715 16.8561 16.62 16.8425 16.6645 16.8199C16.709 16.7972 16.7485 16.7659 16.7807 16.7277C17.1813 16.2734 17.6894 15.9266 18.2586 15.7192C18.8277 15.5117 19.4398 15.4502 20.0388 15.5403C20.6378 15.6303 21.2048 15.8691 21.6877 16.2347C22.1707 16.6003 22.5544 17.0811 22.8037 17.6332C23.053 18.1853 23.16 18.7911 23.1148 19.3952C23.0697 19.9992 22.8739 20.5824 22.5453 21.0913C22.2167 21.6002 21.7658 22.0186 21.2338 22.3084C20.7019 22.5982 20.1058 22.75 19.5 22.75Z" fill="white"/>
<path d="M23.9491 13.1274C23.9242 13.0842 23.8911 13.0464 23.8516 13.0161C23.812 12.9857 23.7669 12.9635 23.7188 12.9506C23.6707 12.9377 23.6205 12.9344 23.5711 12.9409C23.5217 12.9475 23.4741 12.9637 23.4309 12.9886L21.9209 13.8605C21.8766 13.8848 21.8375 13.9176 21.8061 13.9572C21.7746 13.9967 21.7514 14.0422 21.7377 14.0909C21.7241 14.1395 21.7203 14.1904 21.7266 14.2406C21.7329 14.2907 21.7491 14.3391 21.7744 14.3829C21.7997 14.4267 21.8334 14.465 21.8737 14.4955C21.9139 14.5261 21.9599 14.5483 22.0089 14.5608C22.0578 14.5733 22.1088 14.576 22.1588 14.5685C22.2088 14.5611 22.2568 14.5437 22.3 14.5175L23.81 13.6456C23.8971 13.5953 23.9608 13.5125 23.9869 13.4153C24.013 13.3181 23.9994 13.2146 23.9491 13.1274Z" fill="white"/>
<path d="M19.3382 11.935C19.3813 11.9599 19.4289 11.9761 19.4783 11.9826C19.5277 11.9892 19.5779 11.9859 19.626 11.973C19.6742 11.9601 19.7193 11.9379 19.7588 11.9075C19.7983 11.8772 19.8315 11.8394 19.8564 11.7962L20.7283 10.2862C20.7777 10.1991 20.7907 10.096 20.7644 9.99943C20.7382 9.90282 20.6748 9.82051 20.5881 9.77045C20.5014 9.72038 20.3984 9.70662 20.3016 9.73216C20.2048 9.7577 20.122 9.82047 20.0713 9.90679L19.1994 11.4168C19.1491 11.5039 19.1355 11.6075 19.1615 11.7046C19.1875 11.8018 19.2511 11.8847 19.3382 11.935Z" fill="white"/>
<path d="M16 11.0406C16.1006 11.0405 16.1971 11.0005 16.2682 10.9294C16.3394 10.8583 16.3794 10.7618 16.3794 10.6612V8.91736C16.38 8.86717 16.3706 8.81737 16.3518 8.77083C16.333 8.7243 16.3051 8.68196 16.2698 8.64627C16.2345 8.61058 16.1925 8.58224 16.1462 8.5629C16.0999 8.54356 16.0502 8.5336 16 8.5336C15.9498 8.5336 15.9001 8.54356 15.8538 8.5629C15.8075 8.58224 15.7655 8.61058 15.7302 8.64627C15.6949 8.68196 15.6671 8.7243 15.6482 8.77083C15.6294 8.81737 15.6201 8.86717 15.6206 8.91736V10.6612C15.6206 10.7618 15.6606 10.8583 15.7318 10.9294C15.8029 11.0005 15.8994 11.0405 16 11.0406Z" fill="white"/>
<path d="M12.1437 11.7961C12.1944 11.8824 12.2772 11.9452 12.374 11.9707C12.4708 11.9963 12.5737 11.9825 12.6604 11.9324C12.7471 11.8824 12.8105 11.8001 12.8368 11.7035C12.8631 11.6068 12.8501 11.5038 12.8007 11.4167L11.9288 9.9067C11.904 9.86316 11.871 9.82495 11.8314 9.79426C11.7919 9.76357 11.7467 9.741 11.6984 9.72787C11.6501 9.71474 11.5996 9.7113 11.55 9.71774C11.5003 9.72419 11.4525 9.74039 11.4091 9.76543C11.3658 9.79046 11.3278 9.82382 11.2974 9.86359C11.267 9.90336 11.2448 9.94876 11.232 9.99716C11.2193 10.0456 11.2162 10.096 11.223 10.1456C11.2298 10.1952 11.2464 10.2429 11.2718 10.2861L12.1437 11.7961Z" fill="white"/>
<path d="M10.0793 13.8605L8.56925 12.9886C8.52609 12.9632 8.47834 12.9467 8.42875 12.9399C8.37916 12.933 8.32872 12.9361 8.28032 12.9489C8.23192 12.9616 8.18652 12.9839 8.14675 13.0143C8.10698 13.0447 8.07361 13.0826 8.04858 13.126C8.02355 13.1693 8.00734 13.2172 8.0009 13.2668C7.99445 13.3165 7.9979 13.3669 8.01103 13.4152C8.02416 13.4635 8.04672 13.5087 8.07741 13.5483C8.10811 13.5878 8.14632 13.6209 8.18985 13.6456L9.7 14.5175C9.74316 14.5429 9.79091 14.5594 9.8405 14.5662C9.89009 14.5731 9.94054 14.57 9.98894 14.5572C10.0373 14.5444 10.0827 14.5222 10.1225 14.4918C10.1623 14.4614 10.1956 14.4235 10.2207 14.3801C10.2457 14.3368 10.2619 14.2889 10.2684 14.2393C10.2748 14.1896 10.2714 14.1392 10.2582 14.0909C10.2451 14.0426 10.2225 13.9974 10.1918 13.9578C10.1612 13.9183 10.1228 13.8852 10.0793 13.8605Z" fill="white"/>
</g>
<path d="M44.6574 21V10.794H48.7594C51.6574 10.794 53.3514 12.796 53.3514 15.904C53.3514 19.012 51.6574 21 48.7594 21H44.6574ZM48.5214 19.586C50.4954 19.586 51.6854 18.312 51.6854 15.876C51.6854 13.426 50.4674 12.194 48.5214 12.194H46.2674V19.586H48.5214ZM58.1381 21.126C55.8981 21.126 54.5821 19.628 54.5821 17.332C54.5821 14.966 55.9401 13.454 58.0821 13.454C60.4761 13.454 61.6801 15.148 61.5121 17.598H56.1501C56.1361 19.11 56.9061 19.936 58.1381 19.936C59.0901 19.936 59.7061 19.488 59.9301 18.76H61.4421C61.1761 20.23 59.8881 21.126 58.1381 21.126ZM56.1221 16.59H59.9721C59.9161 15.302 59.1741 14.644 58.0681 14.644C56.9761 14.644 56.2201 15.372 56.1221 16.59ZM62.8488 23.394V13.58H64.3048L64.3608 15.036H64.4448C64.7808 14.098 65.6628 13.454 66.8108 13.454C68.6028 13.454 69.7648 14.882 69.7648 17.29C69.7648 19.712 68.6028 21.126 66.8108 21.126C65.6628 21.126 64.7808 20.51 64.4448 19.586H64.3888V23.394H62.8488ZM66.2508 19.852C67.4688 19.852 68.1828 18.9 68.1828 17.29C68.1828 15.694 67.4828 14.742 66.2928 14.742C65.0888 14.742 64.3888 15.722 64.3888 16.94V17.654C64.3888 18.872 65.0748 19.852 66.2508 19.852ZM71.269 21V10.556H72.809V21H71.269ZM77.8643 21.126C75.7223 21.126 74.2803 19.656 74.2803 17.304C74.2803 15.008 75.6383 13.454 77.8643 13.454C79.9923 13.454 81.4203 14.924 81.4203 17.29C81.4203 19.572 80.0763 21.126 77.8643 21.126ZM77.8503 19.838C79.0683 19.838 79.8523 18.942 79.8523 17.29C79.8523 15.638 79.0823 14.728 77.8643 14.728C76.6323 14.728 75.8483 15.638 75.8483 17.304C75.8483 18.942 76.6323 19.838 77.8503 19.838ZM82.4854 23.45V22.176H83.2974C83.9414 22.176 84.2774 21.938 84.5014 21.336L84.8234 20.468L81.9674 13.58H83.6614L85.5514 18.816H85.6214L86.1254 17.262L87.3854 13.58H89.0234L85.9854 21.714C85.5234 22.988 84.7954 23.45 83.5634 23.45H82.4854ZM95.6675 21C94.5335 21 93.9875 20.482 93.9875 19.278V14.84H92.6155V13.58H93.9875V11.48L95.5135 11.284V13.58H97.0955V14.84H95.5135V18.998C95.5135 19.516 95.7515 19.712 96.2135 19.712H97.1095V21H95.6675ZM101.51 21.126C99.3681 21.126 97.9261 19.656 97.9261 17.304C97.9261 15.008 99.2841 13.454 101.51 13.454C103.638 13.454 105.066 14.924 105.066 17.29C105.066 19.572 103.722 21.126 101.51 21.126ZM101.496 19.838C102.714 19.838 103.498 18.942 103.498 17.29C103.498 15.638 102.728 14.728 101.51 14.728C100.278 14.728 99.4941 15.638 99.4941 17.304C99.4941 18.942 100.278 19.838 101.496 19.838ZM109.843 21V10.794H111.467V21H109.843ZM113.56 21V10.794H118.166C120.154 10.794 121.19 11.83 121.19 13.356C121.19 14.42 120.602 15.288 119.524 15.554V15.624C120.882 15.862 121.54 16.842 121.54 18.06C121.54 19.964 120.238 21 118.04 21H113.56ZM117.872 19.712C119.23 19.712 119.874 19.012 119.874 17.962C119.874 16.884 119.174 16.282 118.012 16.282H115.142V19.712H117.872ZM115.142 15.05H117.9C118.978 15.05 119.538 14.448 119.538 13.58C119.538 12.628 118.852 12.068 117.746 12.068H115.142V15.05ZM123.195 21V10.794H125.715L127.535 16.128L128.305 18.732H128.389L129.145 16.128L130.951 10.794H133.457V21H131.861V16.072L131.903 12.53H131.819L130.797 15.778L129.019 21H127.647L125.883 15.792L124.861 12.544H124.777L124.805 16.086V21H123.195ZM143.164 21.126C140.252 21.126 138.334 19.152 138.334 15.904C138.334 12.642 140.252 10.682 143.164 10.682C145.628 10.682 147.336 12.026 147.672 14.21H145.992C145.712 12.922 144.662 12.082 143.164 12.082C141.232 12.082 140.014 13.468 140.014 15.904C140.014 18.34 141.232 19.712 143.164 19.712C144.634 19.712 145.74 18.886 145.992 17.57H147.672C147.364 19.768 145.628 21.126 143.164 21.126ZM149.152 21V10.556H150.692V21H149.152ZM155.747 21.126C153.605 21.126 152.163 19.656 152.163 17.304C152.163 15.008 153.521 13.454 155.747 13.454C157.875 13.454 159.303 14.924 159.303 17.29C159.303 19.572 157.959 21.126 155.747 21.126ZM155.733 19.838C156.951 19.838 157.735 18.942 157.735 17.29C157.735 15.638 156.965 14.728 155.747 14.728C154.515 14.728 153.731 15.638 153.731 17.304C153.731 18.942 154.515 19.838 155.733 19.838ZM163.275 21.126C161.651 21.126 160.727 20.118 160.727 18.186V13.58H162.267V17.794C162.267 19.11 162.729 19.852 163.849 19.852C164.955 19.852 165.711 18.942 165.711 17.612V13.58H167.237V21H165.781L165.711 19.488H165.641C165.277 20.51 164.395 21.126 163.275 21.126ZM171.685 21.126C169.921 21.126 168.731 19.684 168.731 17.29C168.731 14.882 169.921 13.454 171.685 13.454C172.847 13.454 173.729 14.084 174.051 15.022H174.121L174.107 10.556H175.647V21H174.191L174.135 19.558H174.065C173.729 20.496 172.847 21.126 171.685 21.126ZM172.203 19.838C173.421 19.838 174.107 18.844 174.107 17.626V16.968C174.107 15.736 173.421 14.728 172.245 14.728C171.013 14.728 170.313 15.694 170.313 17.29C170.313 18.872 170.985 19.838 172.203 19.838Z" fill="white"/>
</g>
<rect x="0.5" y="0.5" width="188" height="31" rx="5.5" stroke="#5A93FF"/>
<defs>
<clipPath id="clip0_94_295">
<rect width="189" height="32" rx="6" fill="white"/>
</clipPath>
<clipPath id="clip1_94_295">
<rect width="16" height="16" fill="white" transform="translate(8 8)"/>
</clipPath>
</defs>
</svg>
